<svg xmlns="http://www.w3.org/2000/svg" id="Layer_1" data-name="Layer 1" viewBox="25.78 84.87 436.7 298.74"><defs><style>.cls-1{opacity:0.41;}.cls-2,.cls-3,.cls-8{fill:#c7d7ee;}.cls-3{opacity:0.31;}.cls-4{fill:#ecf0f6;}.cls-5{fill:#243762;}.cls-11,.cls-6{fill:#fff;}.cls-7{fill:#ae9bca;}.cls-8{opacity:0.43;}.cls-9{opacity:0.26;}.cls-10{fill:#f6a8b3;}.cls-11{opacity:0.25;}</style></defs><g class="cls-1"><path class="cls-2" d="M446.78,298.56c2.12-47.33-21.31-88-56.68-110.89a26.35,26.35,0,0,1-11.81-19.22l-.15-1.27c-6.49-52-55.06-88.48-106.8-81.44-49.48,6.73-85.11,32.88-79.85,83.24,0,.24,0,.58.08,1A24.05,24.05,0,0,1,168,195.59c-2.87.07-5.77.25-8.68.55-59,6.17-101.87,59.23-95.58,118.47a107.37,107.37,0,0,0,34.34,67.95H405.85C429.24,360.17,445.41,329.12,446.78,298.56Z"/></g><path class="cls-3" d="M140.18,154.44a12.73,12.73,0,1,1-12.73-12.72A12.73,12.73,0,0,1,140.18,154.44Z"/><circle class="cls-3" cx="402.46" cy="105.95" r="11.17"/><path class="cls-3" d="M462.48,214.86a7.61,7.61,0,1,1-7.61-7.61A7.61,7.61,0,0,1,462.48,214.86Z"/><path class="cls-3" d="M41,312.23a7.61,7.61,0,1,1-7.6-7.61A7.6,7.6,0,0,1,41,312.23Z"/><path class="cls-2" d="M418.56,310.92a106.12,106.12,0,0,0-48.34-94.57A22.52,22.52,0,0,1,360.15,200c0-.36-.08-.72-.13-1.09-5.53-44.32-46.95-75.46-91.08-69.45-42.2,5.74-72.59,28-68.1,71,0,.2,0,.5.07.87a20.51,20.51,0,0,1-20.09,21.82q-3.67.09-7.41.48a91.8,91.8,0,0,0-52.23,159H383.66C403.61,363.47,417.4,337,418.56,310.92Z"/><path class="cls-4" d="M389.45,352H136.28V182.41a5.14,5.14,0,0,1,5.14-5.14H384.31a5.14,5.14,0,0,1,5.14,5.14Z"/><path class="cls-5" d="M390.1,352.69H135.62V182.41a5.8,5.8,0,0,1,5.79-5.8h242.9a5.8,5.8,0,0,1,5.79,5.8Zm-253.17-1.31H388.79v-169a4.49,4.49,0,0,0-4.48-4.49H141.41a4.49,4.49,0,0,0-4.48,4.49Z"/><rect class="cls-4" x="246.61" y="342.38" width="32.5" height="2.6"/><path class="cls-5" d="M279.77,345.63H246v-3.91h33.81Zm-32.51-1.31h31.2V343h-31.2Z"/><path class="cls-4" d="M264.84,184.49a2,2,0,1,1-2-1.87A1.93,1.93,0,0,1,264.84,184.49Z"/><path class="cls-5" d="M262.86,187a2.53,2.53,0,1,1,2.63-2.53A2.58,2.58,0,0,1,262.86,187Zm0-3.75a1.22,1.22,0,1,0,1.32,1.22A1.27,1.27,0,0,0,262.86,183.27Z"/><path class="cls-5" d="M416.26,382.73H109.09c-3.34,0-6-1.81-6-4v-6.35c0-.63.76-1.13,1.7-1.13H420.86c.94,0,1.7.5,1.7,1.13v6.18C422.56,380.84,419.74,382.73,416.26,382.73Z"/><path class="cls-5" d="M416.26,383.38H109.09c-3.75,0-6.69-2.06-6.69-4.69v-6.35c0-1,1-1.79,2.35-1.79H420.86c1.32,0,2.36.79,2.36,1.79v6.18C423.22,381.25,420.16,383.38,416.26,383.38ZM104.75,371.86c-.65,0-1,.31-1,.48v6.35c0,1.84,2.46,3.38,5.38,3.38H416.26c3.06,0,5.65-1.63,5.65-3.55v-6.18c0-.17-.4-.48-1.05-.48Z"/><rect class="cls-6" x="147.47" y="191.14" width="230.79" height="147.77" rx="5.62"/><path class="cls-5" d="M372.63,339.54H153.09a6.26,6.26,0,0,1-6.25-6.25V196.77a6.26,6.26,0,0,1,6.25-6.25H372.63a6.25,6.25,0,0,1,6.25,6.25V333.29A6.25,6.25,0,0,1,372.63,339.54ZM153.09,191.76a5,5,0,0,0-5,5V333.29a5,5,0,0,0,5,5H372.63a5,5,0,0,0,5-5V196.77a5,5,0,0,0-5-5Z"/><path class="cls-7" d="M377.24,201v-3.91a5.38,5.38,0,0,0-5.59-5.14H153.8a5.37,5.37,0,0,0-5.58,5.14v3.92Z"/><path class="cls-6" d="M357.89,196.77a1.3,1.3,0,1,1-1.3-1.3A1.3,1.3,0,0,1,357.89,196.77Z"/><circle class="cls-6" cx="361.79" cy="196.77" r="1.3"/><circle class="cls-6" cx="366.99" cy="196.77" r="1.3"/><rect class="cls-8" x="167.11" y="217.33" width="189.63" height="102.5"/><path class="cls-4" d="M137.25,351.54,104,371.06h0l316.83-.14-30.6-19.3Z"/><path class="cls-5" d="M104.21,371.72H104v-.66l-.33-.56,33.37-19.61h.18l253.2.08,32.68,20.61Zm33.22-19.53-31,18.22,312.16-.14-28.52-18Z"/><g class="cls-9"><path class="cls-4" d="M179.22,351.54l-22.09,13h0l210.63-.09L347.42,351.6Z"/><path class="cls-5" d="M154.72,365.17,179,350.89l168.57.05L370,365.08Zm24.67-13-19.85,11.67,206-.09-18.27-11.52Z"/></g><path class="cls-5" d="M233.25,260a2,2,0,0,1-2-2,7.86,7.86,0,1,0-15.72,0,2,2,0,1,1-3.92,0,11.79,11.79,0,0,1,23.57,0A2,2,0,0,1,233.25,260Z"/><path class="cls-5" d="M311.9,260a2,2,0,0,1-2-2,7.86,7.86,0,1,0-15.72,0,2,2,0,1,1-3.93,0,11.79,11.79,0,0,1,23.57,0A2,2,0,0,1,311.9,260Z"/><path class="cls-5" d="M262.72,302a33,33,0,0,1-32.81-32.1,2.65,2.65,0,0,1,2.64-2.69h63v2A32.86,32.86,0,0,1,262.72,302Zm-28.83-30.86a28.9,28.9,0,0,0,57.66,0Z"/><path class="cls-5" d="M377.3,201.74H200.48a.69.69,0,0,1-.69-.69.68.68,0,0,1,.69-.68H377.3a.68.68,0,0,1,.69.68A.69.69,0,0,1,377.3,201.74Z"/><path class="cls-5" d="M342.38,177.78V155.27c0-12,8.83-21.75,19.68-21.75H378c10.85,0,19.69,9.76,19.69,21.75v22.51c0,12-8.84,21.75-19.69,21.75H362.06C351.21,199.53,342.38,189.77,342.38,177.78Zm19.68-34c-5.74,0-10.41,5.16-10.41,11.5v22.51c0,6.34,4.67,11.5,10.41,11.5H378c5.74,0,10.41-5.16,10.41-11.5V155.27c0-6.34-4.67-11.5-10.41-11.5Z"/><path class="cls-6" d="M378,200.15H362.06c-11.2,0-20.31-10-20.31-22.37V155.27c0-12.34,9.11-22.37,20.31-22.37H378c11.2,0,20.31,10,20.31,22.37v22.51C398.28,190.12,389.17,200.15,378,200.15Zm-15.91-66c-10.51,0-19.06,9.47-19.06,21.12v22.51c0,11.65,8.55,21.12,19.06,21.12H378c10.51,0,19.06-9.47,19.06-21.12V155.27c0-11.65-8.55-21.12-19.06-21.12ZM378,189.9H362.06c-6.08,0-11-5.44-11-12.12V155.27c0-6.68,5-12.12,11-12.12H378c6.08,0,11,5.44,11,12.12v22.51C389,184.46,384.05,189.9,378,189.9Zm-15.91-45.5c-5.4,0-9.78,4.87-9.78,10.87v22.51c0,6,4.38,10.88,9.78,10.88H378c5.4,0,9.78-4.88,9.78-10.88V155.27c0-6-4.38-10.87-9.78-10.87Z"/><rect class="cls-10" x="329.81" y="170.13" width="80.41" height="66.76" rx="9.37"/><path class="cls-5" d="M402.53,237.51H380a.63.63,0,1,1,0-1.25h22.58a7.07,7.07,0,0,0,7.07-7.06V184.42a.63.63,0,0,1,1.25,0V229.2A8.32,8.32,0,0,1,402.53,237.51Z"/><rect class="cls-11" x="335.31" y="179.26" width="69.41" height="51.69" rx="9.37"/><path class="cls-5" d="M360.63,197.72a9.39,9.39,0,1,1,12.1,8.94v12.15H367.3V206.66A9.35,9.35,0,0,1,360.63,197.72Z"/><path class="cls-5" d="M445,383.61H81.4a1.05,1.05,0,0,1,0-2.1H445a1.05,1.05,0,0,1,0,2.1Z"/><path class="cls-7" d="M425.17,178.11A15.13,15.13,0,1,1,410,163,15.12,15.12,0,0,1,425.17,178.11Z"/><path class="cls-5" d="M395.72,192.44a.66.66,0,0,1,.93-.93,19.22,19.22,0,1,0,0-27.18.65.65,0,0,1-.93,0,.64.64,0,0,1,0-.92,20.53,20.53,0,1,1,0,29Z"/><path class="cls-6" d="M409.83,186.34a2,2,0,0,1-1.44-.53,1.71,1.71,0,0,1-.56-1.28,1.62,1.62,0,0,1,.57-1.28,2.11,2.11,0,0,1,1.43-.5,2,2,0,0,1,1.42.51,1.64,1.64,0,0,1,.56,1.27,1.73,1.73,0,0,1-.55,1.3A2,2,0,0,1,409.83,186.34ZM411.55,172l-.31,7.84a1.44,1.44,0,0,1-1.44,1.39h0a1.45,1.45,0,0,1-1.45-1.39l-.29-7.84a1.44,1.44,0,0,1,1.44-1.5h.61A1.44,1.44,0,0,1,411.55,172Z"/></svg>