<svg xmlns="http://www.w3.org/2000/svg" viewBox="32.63 59.44 446.26 368.12"><defs><style>.cls-1{isolation:isolate;}.cls-2{fill:#dbebf7;}.cls-3{fill:#3b73b8;}.cls-4{fill:#345fab;}.cls-5{fill:#4683c4;}.cls-6{fill:#faa819;}.cls-7{fill:#f5871f;}.cls-8{fill:#fccb50;}.cls-9{fill:#f8ae8a;}.cls-10{fill:#fff;}.cls-11{fill:#2e3052;}.cls-12{fill:#09152f;}.cls-13{fill:#534e83;}.cls-14{fill:#1f2232;}.cls-15{mix-blend-mode:screen;}.cls-16{fill:#f48566;}.cls-17{fill:#f16650;}.cls-18{fill:#0c1328;}</style></defs><g class="cls-1"><g id="Layer_1" data-name="Layer 1"><path class="cls-2" d="M430.14,410.89C407.91,394,369.88,352.07,420,286.27c61.92-81.38-12.24-114.76-83.33-111.28-57.19,2.81-121.55-69.09-185.76-56.24C65.65,135.8,121,209.19,63.2,248.73c-49.28,33.72-28.12,136.47,36,162.16Z"/><path class="cls-2" d="M470.27,261.66c-.34-12.07-11.58-16.75-19.08-8A37.64,37.64,0,0,0,442,275.46c-1.72,21.52,17.11,15.28,24.14,3.76C469.15,274.31,470.45,267.76,470.27,261.66Z"/><path class="cls-2" d="M263.15,114.49c-11.86-2.25-18.84,7.73-11.91,16.93a37.69,37.69,0,0,0,19.35,13.63c20.65,6.27,18.58-13.45,8.84-22.78C275.27,118.29,269.15,115.62,263.15,114.49Z"/><path class="cls-2" d="M67.11,225.05c4.74-11.1-3.5-20.06-14-15.28a37.72,37.72,0,0,0-17.47,16C25.08,244.55,44.79,246.78,56,239.26,60.78,236.06,64.71,230.66,67.11,225.05Z"/><ellipse class="cls-2" cx="256.12" cy="414.18" rx="203.31" ry="13.38"/><path class="cls-3" d="M454,304.37c-12.45,12.45,1.44,13.5-7.7,22.9-8.32,8.56-20.61.23-19.79,21.15.18,4.57-3.15,8-7.82,9.71a17.82,17.82,0,0,1-19.85-5.05c-.37-.42-.73-.86-1.07-1.32A18.17,18.17,0,0,1,395.53,334c2.12-5.23,5.86-10.37,12.49-12.42,15.57-4.81,6.93-25.43,20.08-26.33,15.87-1.09,16.44-6.91,27.69-14.76C467.73,272.19,470.82,287.51,454,304.37Z"/><path class="cls-4" d="M448.37,297.57c-.35.36-29.21,30.12-49.58,55.51-.37-.42-.73-.86-1.07-1.32,20.42-25.41,49.11-55,49.46-55.35a.83.83,0,0,1,1.19,1.16Z"/><path class="cls-5" d="M457.15,345.91c-19.51,11.48-2.56,17.27-17,26-13.12,8-25.73-6.36-31.44,19.95-1.26,5.75-6.49,8.91-12.87,9.57a22.93,22.93,0,0,1-23.08-12.67c-.33-.65-.63-1.32-.9-2a23.35,23.35,0,0,1,3-22.8c4.32-5.83,10.64-11,19.55-11.44,20.93-1,16.81-29.42,33.48-26.31,20.1,3.75,22.68-3.31,39.22-9.44C484.66,310.29,483.58,330.36,457.15,345.91Z"/><path class="cls-3" d="M452.39,335.65c-.55.34-46.06,28.09-79.59,53.14-.33-.65-.63-1.32-.9-2,33.6-25.05,78.83-52.63,79.38-53a1.08,1.08,0,0,1,1.47.36A1.07,1.07,0,0,1,452.39,335.65Z"/><path class="cls-3" d="M76.81,162.22c6.69,16.28-6.53,11.9-1.73,24.09,4.39,11.12,18.93,8.16,10.12,27.15-1.93,4.15-.17,8.57,3.48,12a17.8,17.8,0,0,0,20.25,3,15.56,15.56,0,0,0,1.5-.81,18.14,18.14,0,0,0,8.86-15.53c.07-5.64-1.41-11.83-6.74-16.28-12.5-10.43,3.41-26.13-8.38-32C90,156.65,91.67,151.06,84.3,139.48,76.49,127.21,67.74,140.16,76.81,162.22Z"/><path class="cls-4" d="M84.58,158.1c.18.46,15.34,39,24.35,70.32a15.56,15.56,0,0,0,1.5-.81C101.38,196.3,86.31,158,86.12,157.48a.83.83,0,0,0-1.54.62Z"/><path class="cls-5" d="M57.75,204.74c14.11,17.69-3.78,17,6.54,30.36,9.4,12.15,26.3,3.26,22.24,29.88-.89,5.82,2.88,10.63,8.6,13.53a22.9,22.9,0,0,0,26.08-3.59c.54-.49,1.06-1,1.55-1.54A23.31,23.31,0,0,0,128.12,251c-2-7-6-14.1-14.17-17.67-19.19-8.39-5.18-33.48-21.86-36.53-20.11-3.68-20-11.2-33.26-22.84C44.78,161.64,38.62,180.77,57.75,204.74Z"/><path class="cls-3" d="M65.86,196.86c.39.51,33,42.69,55.35,78.06.54-.49,1.06-1,1.55-1.54C100.33,238,68,196.06,67.55,195.55a1.07,1.07,0,0,0-1.69,1.31Z"/><path class="cls-5" d="M152.93,189.34c5.69-3.89,19.93,5.71,27.37,17.37l-6.6-18.5a40.66,40.66,0,0,0-13.12-7.3c-10.17-3.61-20.36-9.25-14.67-13.15,5.34-3.66,18.22,4.58,25.93,15.25l-8.48-23.76a26.71,26.71,0,0,0-7.41-3.9c-6.41-2.28-12.83-5.83-9.24-8.29,3.11-2.14,10.3,2.16,15.21,8.15l-2.75-7.7a39,39,0,0,0-5.86-8.35c-6.53-6.76-11.47-14.36-6.44-15.46s13.29,12.14,14.59,24.1l1.42,4c-1.1-8.7,2-19.23,6.39-19.61s1.62,6.46-1.91,12.27a24.33,24.33,0,0,0-3.62,9.76l6.68,18.72c-1.7-13.78,3.26-30.4,10.16-31s2.56,10.23-3,19.47c-4.23,7-5.42,12.52-5.74,15.42l8,22.45c-1.42-13.62,3.45-30.15,10.25-30.2,5.23-.05,3.63,7.35-2.63,17.79a44.34,44.34,0,0,0-6,16.82l3.77,10.58a3.5,3.5,0,0,1-1.94.69l-1.5-4.21c-2.13-2.05-6.54-5.54-14.14-8.23C157.43,198.89,147.24,193.24,152.93,189.34Z"/><path class="cls-5" d="M102.91,346.16c-5.83,3.66-2.68,20.55,5.06,32L93.62,364.76a40.65,40.65,0,0,1-1.49-14.94c.74-10.77-.39-22.36-6.23-18.69-5.48,3.45-3,18.54,3.69,29.86L71.16,343.76a26.53,26.53,0,0,1-.64-8.35c.46-6.79-.25-14.1-3.93-11.78-3.2,2-2.11,10.32,1.43,17.2l-6-5.58a39,39,0,0,1-5.34-8.7c-3.6-8.68-8.61-16.23-11.62-12.05s5.85,17,16.31,23l3.07,2.87c-7.54-4.47-18.45-5.78-20.53-1.93s5.28,4,12,3.13a24.25,24.25,0,0,1,10.39.56l14.52,13.57c-12-7-29.19-9.1-32.47-3s8.37,6.42,19.06,5c8.08-1.1,13.65,0,16.44.87l17.41,16.27c-11.93-6.72-29-8.82-31.79-2.6-2.12,4.79,5.31,6.26,17.38,4.67A44.36,44.36,0,0,1,104.74,378l8.2,7.67a3.45,3.45,0,0,0,1.41-1.51l-3.27-3.05c-1-2.76-2.48-8.2-1.93-16.24C109.88,354.08,108.75,342.48,102.91,346.16Z"/><rect class="cls-6" x="85.97" y="194.88" width="311.28" height="215.02"/><polygon class="cls-7" points="397.24 194.89 397.24 208.67 241.61 346.61 85.97 208.67 85.97 194.89 241.6 333.3 397.24 194.89"/><polygon class="cls-7" points="211.62 306.16 94.99 409.9 85.97 409.9 85.97 404.42 204.92 298.63 211.62 306.16"/><polygon class="cls-7" points="397.25 405.15 397.25 409.9 387.42 409.9 270.78 306.16 277.49 298.63 397.25 405.15"/><polygon class="cls-8" points="85.96 194.88 241.6 333.3 397.24 194.88 85.96 194.88"/><polygon class="cls-9" points="311.37 175.51 315.34 184.01 306.95 184.15 303.71 176.41 311.37 175.51"/><path class="cls-5" d="M312.7,183.48s1.72-2.31,3.09-2.21,11.94,8.49,15.56,9.19,3.28,4.38,1.77,4.38l-28.44,0s-.73-8.61.19-11.18S309.87,184.09,312.7,183.48Z"/><path class="cls-10" d="M318.54,189.34a.5.5,0,0,1-.59-.73,7.94,7.94,0,0,1,2.64-2.75,3.53,3.53,0,0,1,3.59.16.51.51,0,0,1,.11.71.5.5,0,0,1-.71.11,2.49,2.49,0,0,0-2.53-.08,6.86,6.86,0,0,0-2.21,2.35A.49.49,0,0,1,318.54,189.34Z"/><path class="cls-10" d="M317,187.92a.52.52,0,0,1-.4,0,.51.51,0,0,1-.19-.69,7.84,7.84,0,0,1,2.64-2.75,3.49,3.49,0,0,1,3.59.17.5.5,0,0,1-.6.81,2.5,2.5,0,0,0-2.53-.08,6.91,6.91,0,0,0-2.22,2.35A.49.49,0,0,1,317,187.92Z"/><path class="cls-10" d="M320.59,190.5a.5.5,0,0,1-.59-.73,7.84,7.84,0,0,1,2.64-2.75,3.47,3.47,0,0,1,3.59.16.51.51,0,1,1-.6.82,2.5,2.5,0,0,0-2.53-.08,6.82,6.82,0,0,0-2.22,2.35A.44.44,0,0,1,320.59,190.5Z"/><path class="cls-11" d="M313.76,178.29,310,179.5l-2.06.12-3.56.21c-4.69-3.71-17.36-14.89-19.83-21.48,0,0-16.3,37.9-38.83,37.9-1.47,0,2.4-18.86,6.07-22.78,0,0,20.77-38.71,34.24-34.6C292.1,140.71,298.2,149.49,313.76,178.29Z"/><path class="cls-12" d="M310,179.5l-2.06.12c-13.83-10.47-20.23-19.33-23.18-25a.46.46,0,0,0-.38-.26.25.25,0,0,0-.21.17c-6.62,15.58-14.56,24.94-20.06,30-6,5.56-10.38,7.39-10.56,7.47l-.25-.62-.25-.61s4.39-1.85,10.22-7.28c5.38-5,13.17-14.2,19.67-29.52a1.55,1.55,0,0,1,1.39-1,1.77,1.77,0,0,1,1.62,1C289,159.72,295.54,168.77,310,179.5Z"/><path class="cls-13" d="M300.7,177.3a12.1,12.1,0,0,0,2.57,3.42s8-.37,11.84-2.31l-1.74-4A60.08,60.08,0,0,1,300.7,177.3Z"/><path class="cls-3" d="M311.11,123c-11.32,4.61-20.36,6.93-28.06,7.88h0c-.1,0-1.91.15-2.6.12a20.16,20.16,0,0,1-7.73-1.87c-2-1-4.92-3.39-7.95-6.31-3.75-3.61-7.7-8-10.44-11.06-2.13-2.4-3.52-4.07-3.52-4.07,1.89-2.8,6.07-5.36,9.71-6.73,0,0,7.59,12.65,19.09,18.85.63.35,1.27.66,1.92,1,2.62-.42,9.71-.74,12.78-1a125.23,125.23,0,0,0,15.14-2Z"/><path class="cls-9" d="M309.14,117.3s1.58-4,3.72-5.12,8.25-5.13,9.55-3.94,1,7-4.44,11.76a10.92,10.92,0,0,1-7,2.93Z"/><path class="cls-12" d="M322.8,111.9l-9,8.42a1.29,1.29,0,0,1-1.37.2l-5.52-2.66a.67.67,0,0,1-.33-.34v0l-.27-.92,1.46-.56,14.18-5.38.76-.29.29,1,0,.06a0,0,0,0,1,0,0A.57.57,0,0,1,322.8,111.9Z"/><path class="cls-14" d="M321.93,110.61,307.75,116l8-7.49a1.3,1.3,0,0,1,1.36-.2Z"/><path class="cls-11" d="M312.15,119.59l-5.52-2.67a.54.54,0,0,1-.15-.94l9-8.41a1.32,1.32,0,0,1,1.37-.21l5.52,2.67a.54.54,0,0,1,.14.94l-9,8.41A1.32,1.32,0,0,1,312.15,119.59Z"/><g class="cls-15"><path class="cls-11" d="M312.82,118.08,308.54,116a.53.53,0,0,1-.14-.93l7-6.55a1.34,1.34,0,0,1,1.37-.21l4.28,2.07a.54.54,0,0,1,.14.94l-7,6.54A1.32,1.32,0,0,1,312.82,118.08Z"/></g><path class="cls-14" d="M323,111.39h0a0,0,0,0,0,0,0Z"/><path class="cls-9" d="M312.71,110.17s1.28.2,1.41,1.3-1.06.67-1.83.43a1.85,1.85,0,0,0-1.56.12C310.39,112.42,310.45,109.84,312.71,110.17Z"/><path class="cls-9" d="M318.44,116.16A51.6,51.6,0,0,1,322,111c1-1.2,1.55.55.85,1.77S320.76,116.5,318.44,116.16Z"/><path class="cls-5" d="M224.63,175.82l-4.46-28.77-.26-1.7,0-1.29,1-40.75,11.31-3.82.6-.21,2.54-.86,2-.68,11.93,1.65,1.95.26.68.1,8.54,1.17c.08,27-2.51,32.86,2.48,54.83C265.49,164,256.27,193.4,224.63,175.82Z"/><path class="cls-3" d="M231,168.46h0c8.94-2.5,15.46-8.67,19.36-13.4a51.2,51.2,0,0,0,6.38-9.78.45.45,0,0,0-.81-.37,50.37,50.37,0,0,1-6.28,9.6c-3.81,4.63-10.18,10.66-18.89,13.09a.45.45,0,0,0,.24.86Z"/><path class="cls-3" d="M241.15,168.94c7.77-2.13,14.3-8.68,14.6-9a.44.44,0,0,0,0-.63.43.43,0,0,0-.63,0c-.08.08-7.76,7.78-16.07,9.17a.44.44,0,0,0-.37.51.45.45,0,0,0,.51.37A18.7,18.7,0,0,0,241.15,168.94Z"/><path class="cls-3" d="M235.66,111.48c7.76-2.15,14.27-8.72,14.57-9a.46.46,0,0,0,0-.64.44.44,0,0,0-.63,0c-.08.08-7.74,7.8-16.05,9.21a.44.44,0,0,0-.37.51.46.46,0,0,0,.52.37C234.35,111.8,235,111.66,235.66,111.48Z"/><polygon class="cls-9" points="303.77 250.27 306.89 257.23 300.48 259.99 296.75 252.8 303.77 250.27"/><path class="cls-5" d="M305.49,257.08s.66-2.81,1.95-3.26,14.34,3,17.94,2.21,4,1.92,3.95,3.43-26.68,11.06-26.68,11.06-4.07-7.39-4.25-10.11S303.14,258.77,305.49,257.08Z"/><path class="cls-10" d="M313.19,260.13a.51.51,0,0,1-.83-.44,7.71,7.71,0,0,1,1.32-3.58,3.47,3.47,0,0,1,3.35-1.28.49.49,0,0,1,.38.61.51.51,0,0,1-.61.38,2.47,2.47,0,0,0-2.34.94,7,7,0,0,0-1.1,3A.53.53,0,0,1,313.19,260.13Z"/><path class="cls-10" d="M311.23,259.42a.51.51,0,0,1-.38.12.51.51,0,0,1-.45-.56,7.87,7.87,0,0,1,1.32-3.58,3.49,3.49,0,0,1,3.36-1.28.51.51,0,0,1-.23,1,2.51,2.51,0,0,0-2.35.94,6.85,6.85,0,0,0-1.09,3A.52.52,0,0,1,311.23,259.42Z"/><path class="cls-10" d="M315.53,260.37a.51.51,0,0,1-.38.12.51.51,0,0,1-.45-.56,7.75,7.75,0,0,1,1.32-3.58,3.48,3.48,0,0,1,3.35-1.28.5.5,0,0,1,.38.61.51.51,0,0,1-.61.38,2.5,2.5,0,0,0-2.34.94,6.85,6.85,0,0,0-1.09,3A.57.57,0,0,1,315.53,260.37Z"/><path class="cls-11" d="M305.38,251.62a18.13,18.13,0,0,1-4.95,2.9c-.41.19-.82.36-1.23.53-.73.3-1.45.58-2.13.81,0,0-15.2-28-21-48.35,0,0-51.47-6.36-53.25-24.38a10.38,10.38,0,0,1,0-1.85,13.39,13.39,0,0,1,1.86-5.46c1.18-2,18.79,0,28.31,2.62,0,0,25.8,10.05,35.34,20.41C293.11,204.09,305.38,251.62,305.38,251.62Z"/><path class="cls-12" d="M300.43,254.52c-.41.19-.82.36-1.23.53-7.69-12.72-18.37-42.46-20.75-49.59a1.4,1.4,0,0,0-1.08-.94c-25-4.7-39.42-11.26-47.1-15.94a49.91,49.91,0,0,1-7.49-5.45,10.38,10.38,0,0,1,0-1.85,46.33,46.33,0,0,0,8.35,6.26c7.58,4.58,21.81,11,46.5,15.67a2.74,2.74,0,0,1,2.1,1.83C282.1,212.18,292.82,242,300.43,254.52Z"/><path class="cls-13" d="M294.33,252.92l2.42,3.88a21,21,0,0,0,10.14-5.18l-1.51-3.47A109.57,109.57,0,0,1,294.33,252.92Z"/><path class="cls-9" d="M212.41,186.46s3.5,4.75,3.22,7.21-3.47,7.09-6,7.31,2.91-5.95,1.63-5.75c-1.56.24-12.06,8.86-14.28,8.86s2.61-4,4.49-5c0,0-5,2.22-6.13,3.38s-2-1.33,3.79-4.84c0,0-5.31,3-5.67,3.06-1.18.15,2.19-3.79,5.09-5.22,0,0-4.26,2.07-4.69,2.08-.6,0,.69-1.38,3.84-3.13,2.84-1.57,7.49-8.8,7.49-8.8Z"/><path class="cls-3" d="M220.93,103.31S209.14,126,206.46,149.64l-1.27,36s1.21,2.57,7.22.86l5.81-36,4.45-16.45S224.7,113.8,220.93,103.31Z"/><circle class="cls-11" cx="244.31" cy="76.56" r="13.03" transform="translate(101.58 289.11) rotate(-73.52)"/><path class="cls-11" d="M257.34,76.49s3.81-.36,4-4c.12-3.07-3.75-1.75-3-4s1.79-4.3-1.14-5.42c-2.57-1-2.93.83-5.95-2.43-3.56-3.84-8,2.82-11.72,2.38-5.47-.64-6.7,2.31-7.66,4.67a4.64,4.64,0,0,0,.81,4.44Z"/><path class="cls-16" d="M254.35,82s2.51-2.35,3.62.15-2.19,8.75-5.6,6.48Z"/><path class="cls-17" d="M253.54,86.77a.32.32,0,0,0,.34-.17,4.88,4.88,0,0,1,3.22-2.4.32.32,0,0,0-.12-.63,5.45,5.45,0,0,0-3.67,2.75.31.31,0,0,0,.15.42A.11.11,0,0,0,253.54,86.77Z"/><path class="cls-17" d="M255.86,86.12a.37.37,0,0,0,.18,0,.33.33,0,0,0,.17-.42,3.1,3.1,0,0,0-1-1.15.32.32,0,0,0-.44.08.33.33,0,0,0,.08.45,2.19,2.19,0,0,1,.78.87A.31.31,0,0,0,255.86,86.12Z"/><path class="cls-9" d="M237.42,91.82l-1.16,6.58s2.19,3.38,4.81,4.07,4.78-2.16,4.78-2.16L247,94Z"/><path class="cls-16" d="M237.42,91.82l-.51,2.92c1.43,2.29,4.5,3.34,9.31,3.48L247,94Z"/><path class="cls-9" d="M233.47,73.69a64.3,64.3,0,0,0-.61,8.46c0,.66,0,1.29.1,1.85.52,5.1,2.52,14,12.83,12.27,4.55-.77,7.38-5.19,9.12-9.88a48.09,48.09,0,0,0,2.24-8.89A7,7,0,0,0,254.7,71c-5.15-4.26-11.41-4.12-15.65-3.29A7,7,0,0,0,233.47,73.69Z"/><path class="cls-11" d="M249.32,82c-.12.71.14,1.34.59,1.42s.91-.43,1-1.13-.14-1.34-.58-1.41S249.45,81.33,249.32,82Z"/><path class="cls-11" d="M239.85,80.36c-.12.7.14,1.34.59,1.42s.91-.43,1-1.13-.14-1.34-.58-1.42S240,79.66,239.85,80.36Z"/><path class="cls-11" d="M253.45,78.74s-3.13-1.93-5.92-1.27v1.24A11.1,11.1,0,0,1,253,80.09C253.29,79.57,253.57,79.35,253.45,78.74Z"/><path class="cls-11" d="M238.05,76s3.6-.73,6,.85L243.62,78a11.13,11.13,0,0,0-5.63-.58C237.92,76.85,237.73,76.55,238.05,76Z"/><path class="cls-16" d="M244,86.25a3.39,3.39,0,0,1-1.09-.44.32.32,0,1,1,.34-.54c.26.17.91.47,1.23.34a.36.36,0,0,0,.21-.26,48.48,48.48,0,0,0,.65-4.82.32.32,0,0,1,.35-.29.33.33,0,0,1,.29.35,49.42,49.42,0,0,1-.68,4.93,1,1,0,0,1-.59.69A1.42,1.42,0,0,1,244,86.25Z"/><path class="cls-10" d="M247.55,88.85c-.48,1.24-1.75,3.46-4.61,3s-3.29-2.81-3.3-4.34Z"/><path class="cls-16" d="M242.69,93.44a3.37,3.37,0,0,1-1.45-.69.32.32,0,0,1,0-.45.31.31,0,0,1,.44,0,2.77,2.77,0,0,0,1.14.55,2.49,2.49,0,0,0,1.2-.14.32.32,0,0,1,.41.18.31.31,0,0,1-.18.41A3,3,0,0,1,242.69,93.44Z"/><path class="cls-11" d="M254.3,84.18a13.06,13.06,0,0,0,1-3.75c0-1.57-1.13-2.67-.45-4.06s-.59-3.22-1.68-3.68-3.83-.37-6.22-2.06-6.75-1.54-7.73-.07c-1.2,1.78-.07,2.17-2.76,3.85-1.08.66-.36,3-.45,4.46a9.92,9.92,0,0,1-.24,1.66l-.07.36-2.79-.5c.08-2.23.33-4.67.59-6.7a7,7,0,0,1,5.58-5.94c4.24-.83,10.49-1,15.65,3.29a7,7,0,0,1,2.45,6.46,51.39,51.39,0,0,1-1.57,6.91Z"/><path class="cls-9" d="M233.9,81.81a11.56,11.56,0,0,0,.22-2.2,2.67,2.67,0,0,0-1.06-2.54,1.75,1.75,0,0,0-2.39.17c-1.9,2-1.45,9.25,2.53,8.28Z"/><path class="cls-16" d="M232.85,83.37a.31.31,0,0,1-.2-.33,4.88,4.88,0,0,0-1.51-3.72.32.32,0,1,1,.43-.47,5.45,5.45,0,0,1,1.71,4.25.32.32,0,0,1-.35.29Z"/><path class="cls-16" d="M231.21,81.61a.42.42,0,0,1-.15-.11.32.32,0,0,1,.08-.45,2.89,2.89,0,0,1,1.45-.46.32.32,0,0,1,0,.64,2.15,2.15,0,0,0-1.12.34A.36.36,0,0,1,231.21,81.61Z"/><path class="cls-9" d="M380.94,232.23a112.82,112.82,0,0,1-9.34,14.57,38.31,38.31,0,0,1-4.57,5c-2.48,2.2-4.9,3.34-6.88,2.37-7.31-3.61-23.61-32.35-23.61-32.35l4-4.67s7.25,8.21,12.56,13.12c4.89,4.53,8.65,7.92,8.65,7.92.68-1,1.4-2.12,2.15-3.29s1.63-2.56,2.47-3.91c6.11-9.83,13.46-20.58,13.46-20.58Z"/><path class="cls-9" d="M341.62,220s1.66-2.72,1-5.15-1.27-7.94-3.92-7.79c-1,.06.44,2.36-.21,4.48a36.62,36.62,0,0,1-4.75-2.77c-1.68-1.24-5.15-3.25-6.76-4.17a.5.5,0,0,0-.7.66,11.45,11.45,0,0,0,3.77,3.22s-5.81-3.26-6.79-2.55,6.37,4.66,6.37,4.66-5.93-2.4-6.41-1.52c-.3.53,5.52,3.95,5.52,3.95s-5.78-1.78-4.71-.43c.32.39,11.29,5.36,13.58,11.13C337.63,223.71,340.82,222,341.62,220Z"/><path class="cls-16" d="M371.6,246.8a38.31,38.31,0,0,1-4.57,5l-3.11-16.9c.8-1.24,1.63-2.56,2.47-3.91Z"/><path class="cls-5" d="M380.08,209.67,364.62,232l4.92,19.86,12.13-19.34S383.94,219.53,380.08,209.67Z"/><polygon class="cls-9" points="388.01 400.36 388.01 407.4 394.57 407.29 395 399.84 388.01 400.36"/><path class="cls-11" d="M404.68,297.56c0,.84-.27,4.86-.61,10.45-.93,15.38-2.66,42.71-3.68,48.85-1,6.3-.57,27-.23,37.77a6.53,6.53,0,0,1-1.86,4.74,7,7,0,0,1-1.53,1.16,6.7,6.7,0,0,1-3.3.86h-5a6.62,6.62,0,0,1-6.69-6.76c.28-9.14.63-25.82,0-38.7-.63-12.26.28-34,1-47.48h0c.29-5.4.53-9.49.63-11.16Z"/><path class="cls-12" d="M383.37,297.29l21.31.27c0,.84-.27,4.86-.61,10.45a91.9,91.9,0,0,1-21.33.44C383,303.05,383.27,299,383.37,297.29Z"/><path class="cls-12" d="M398.22,375.35c.18,6.91.38,14.06.25,19.83,0,1.62-.09,3-.17,4.19a6.71,6.71,0,0,1-1.53,1.16c.12-1.37.22-3.14.27-5.38.12-5.73-.07-12.86-.26-19.76-.23-8.43-.44-16.4,0-19.79,1-7.42,3.31-47.63,3.9-58.37l1.44.06c-.6,10.73-2.9,51-3.93,58.5C397.77,359.07,398,367,398.22,375.35Z"/><path class="cls-5" d="M389.69,407.13s-1.36-1.87-2.47-1.81-9.86,6.55-12.81,7S372,415,372.5,416.08s23.47.1,23.47.1.78-6.67.08-8.74S392,407.67,389.69,407.13Z"/><path class="cls-10" d="M384.84,411.7a.41.41,0,0,0,.49-.58,6.3,6.3,0,0,0-2.1-2.23,2.89,2.89,0,0,0-2.92.07.4.4,0,0,0-.09.56.41.41,0,0,0,.57.1,2,2,0,0,1,2.06,0,5.4,5.4,0,0,1,1.75,1.91A.45.45,0,0,0,384.84,411.7Z"/><path class="cls-10" d="M386.09,410.59a.43.43,0,0,0,.33,0,.4.4,0,0,0,.16-.55,6.24,6.24,0,0,0-2.09-2.23,2.89,2.89,0,0,0-2.92.07.39.39,0,0,0-.1.56.43.43,0,0,0,.58.1,2,2,0,0,1,2.05,0,5.47,5.47,0,0,1,1.76,1.91A.43.43,0,0,0,386.09,410.59Z"/><path class="cls-10" d="M383.15,412.59a.47.47,0,0,0,.33,0,.4.4,0,0,0,.16-.55,6.24,6.24,0,0,0-2.09-2.24,2.91,2.91,0,0,0-2.92.07.4.4,0,0,0-.1.57.42.42,0,0,0,.58.09,2.07,2.07,0,0,1,2.05,0,5.57,5.57,0,0,1,1.76,1.9A.41.41,0,0,0,383.15,412.59Z"/><polygon class="cls-9" points="420 400.36 420.7 407.39 426.56 407.29 426.99 399.84 420 400.36"/><path class="cls-11" d="M432.06,355.93c-.65,12.88-.31,29.56,0,38.7a6.62,6.62,0,0,1-6.68,6.76h-5a6.88,6.88,0,0,1-3.07-.73,6.73,6.73,0,0,1-1.52-1.07,6.43,6.43,0,0,1-2.09-5c.34-10.81.81-31.47-.24-37.77s-2.81-34.41-3.72-49.63c-.3-5.08-.51-8.72-.57-9.61l21.35.27c.07,1.09.17,2.76.28,4.87C431.45,314.93,432.79,341.74,432.06,355.93Z"/><path class="cls-12" d="M430.76,302.76a208.75,208.75,0,0,1-21.06,4.47c-.3-5.08-.51-8.72-.57-9.61l21.35.27C430.55,299,430.65,300.65,430.76,302.76Z"/><path class="cls-12" d="M417,395.15c.05,2.31.15,4.11.27,5.5a6.65,6.65,0,0,1-1.52-1c-.08-1.24-.15-2.7-.19-4.42-.12-5.77.07-12.92.26-19.83.23-8.37.44-16.28,0-19.56-1-7.47-3.33-47.79-3.92-58.51l1.43-.06c.6,10.72,2.88,51,3.91,58.38.47,3.39.25,11.36,0,19.79C417.07,382.29,416.87,389.42,417,395.15Z"/><path class="cls-5" d="M423,406.31a28.57,28.57,0,0,1,3.81-.77c.83,0,6.37,6.08,8.23,6.44,3.38.65,3.38,5.82,1.33,6.08-5.95.74-16.13-1.72-16.13-1.72s-.94-6.64-.53-8.72S421.33,406.92,423,406.31Z"/><path class="cls-10" d="M427.91,412a.39.39,0,0,1-.31-.06.4.4,0,0,1-.12-.56,6.45,6.45,0,0,1,2.31-2,2.9,2.9,0,0,1,2.9.34.4.4,0,0,1,0,.57.42.42,0,0,1-.58,0,2.07,2.07,0,0,0-2-.21,5.52,5.52,0,0,0-1.93,1.73A.41.41,0,0,1,427.91,412Z"/><path class="cls-10" d="M426.77,410.75a.43.43,0,0,1-.31-.06.41.41,0,0,1-.12-.56,6.45,6.45,0,0,1,2.31-2,2.9,2.9,0,0,1,2.9.34.4.4,0,0,1,0,.57.41.41,0,0,1-.58,0,2.09,2.09,0,0,0-2.05-.21,5.61,5.61,0,0,0-1.93,1.74A.41.41,0,0,1,426.77,410.75Z"/><path class="cls-10" d="M429.51,413a.41.41,0,0,1-.44-.62,6.45,6.45,0,0,1,2.31-2,2.9,2.9,0,0,1,2.9.34.4.4,0,0,1,0,.57.42.42,0,0,1-.58.05,2.06,2.06,0,0,0-2.05-.21,5.52,5.52,0,0,0-1.93,1.73A.39.39,0,0,1,429.51,413Z"/><path class="cls-5" d="M435.33,299.72a118.56,118.56,0,0,1-57.78,0c-.1-7-.2-35.2.35-58.31l0-1.36c0-.22,0-.45,0-.67v0l0-.86c.41-15.24,1.13-27.69,2.35-29.35h0c2.87-3.87,17.3-10,21.29-12.8.33.53,2.29,3.44,4.87,3.66,2.82.24,5.33-3,5.33-3v-.62c4,2.75,17.08,8.47,19.95,12.32C434.92,212.91,435.46,287.72,435.33,299.72Z"/><path class="cls-3" d="M383.78,230.56a70.58,70.58,0,0,0-5.16,9.45l-.36.78c-.13.27-.19.42-.2.43a.49.49,0,0,1-.16.19l0-1.36c0-.22,0-.45,0-.67v0c.22-.47.49-1,.78-1.62a57,57,0,0,1,4.33-7.69.45.45,0,0,1,.63-.09A.44.44,0,0,1,383.78,230.56Z"/><path class="cls-3" d="M420.7,213.55h0a31.43,31.43,0,0,1-17.19-5.94,30.54,30.54,0,0,1-6.07-5.61.43.43,0,0,1,.09-.61.45.45,0,0,1,.63.09c.08.1,8.35,10.75,22.56,11.19a.44.44,0,1,1,0,.88Z"/><path class="cls-3" d="M394.89,285a.45.45,0,0,1-.45-.41.45.45,0,0,1,.42-.47c12.57-.8,20.07-7,24.14-12.14a33.43,33.43,0,0,0,5.92-11,.45.45,0,0,1,.55-.32.44.44,0,0,1,.32.54,33.85,33.85,0,0,1-6.06,11.3c-4.19,5.25-11.9,11.68-24.81,12.51Z"/><path class="cls-3" d="M401.64,277.21a.44.44,0,0,1-.43-.33.42.42,0,0,1,.31-.53c10.92-2.9,13-11.83,13.05-11.92a.45.45,0,0,1,.88.18,15.61,15.61,0,0,1-2.51,5.16,19.52,19.52,0,0,1-11.19,7.42Z"/><path class="cls-9" d="M449.48,299c-.28,3.83-2.62,6.67-2.64,9.19s-3,.88-1.6-4.11-.67-9.79-1.76-9.75.35,5.61-.8,7.46-2-2-3-4.43-.46-7.67.49-11.31-3.69-26.74-3.09-33.25l-1.67-8.44-1-4.93-.18-5.14,8.93-3.47c.34,1.65.68,3.36,1,5.09.16.75.3,1.51.45,2.27,1.19,6.16,2.27,12.22,2.7,16.11,1.21,10.76-.77,32.69-.77,32.69S449.74,295.36,449.48,299Z"/><path class="cls-16" d="M444.64,238.13c-2,2.26-5.23,5.13-9.24,6.18l-1-4.93-.18-5.14,8.93-3.47c.34,1.65.68,3.36,1,5.09C444.35,236.61,444.49,237.37,444.64,238.13Z"/><path class="cls-5" d="M447.12,233.26a18.74,18.74,0,0,1-2.93,2.59,16.92,16.92,0,0,1-9.76,3.53c-.49-14.25-1.22-26.29-2.28-29.82C434,211.83,443.09,223.06,447.12,233.26Z"/><path class="cls-3" d="M428.3,229.13a69.47,69.47,0,0,1,5.16,9.45c.15.32.27.58.37.78l.19.43a.46.46,0,0,0,.41.26h0c0-.22,0-.45,0-.67h.39c-.06-.13-.2-.45-.41-.89s-.62-1.32-1-2.19a54.75,54.75,0,0,0-4.33-7.69.44.44,0,0,0-.72.52Z"/><path class="cls-11" d="M420.23,173.46c0,7.72-4.85,13-12.73,13s-13.37-5.72-13.37-13.44,4.67-13.57,12.55-13.57C416.13,159.49,420.23,165.74,420.23,173.46Z"/><path class="cls-16" d="M418.46,176.78s2.19-2.86,3.82-.49-.68,9.34-4.66,7.64Z"/><path class="cls-17" d="M418.49,181.77a.32.32,0,0,0,.32-.24,5.17,5.17,0,0,1,2.92-3,.32.32,0,0,0,.2-.42.35.35,0,0,0-.44-.2,5.81,5.81,0,0,0-3.33,3.48.33.33,0,0,0,.24.41Z"/><path class="cls-17" d="M420.79,180.68a.29.29,0,0,0,.18-.05.32.32,0,0,0,.1-.45,3,3,0,0,0-1.26-1,.34.34,0,0,0-.45.16.33.33,0,0,0,.17.44,2.58,2.58,0,0,1,1,.75A.32.32,0,0,0,420.79,180.68Z"/><path class="cls-16" d="M395.9,176.78s-2.19-2.86-3.81-.49.67,9.34,4.65,7.64Z"/><path class="cls-17" d="M395.87,181.77a.33.33,0,0,1-.32-.24,5.17,5.17,0,0,0-2.92-3,.33.33,0,0,1-.2-.42.35.35,0,0,1,.44-.2,5.78,5.78,0,0,1,3.33,3.48.34.34,0,0,1-.23.41Z"/><path class="cls-17" d="M393.57,180.68a.31.31,0,0,1-.18-.05.32.32,0,0,1-.1-.45,3,3,0,0,1,1.26-1,.34.34,0,0,1,.45.16.33.33,0,0,1-.17.44,2.49,2.49,0,0,0-1,.75A.35.35,0,0,1,393.57,180.68Z"/><path class="cls-9" d="M401.79,189.85v7s2.12,3.53,5,3.78,5.39-3.05,5.39-3.05v-7.19Z"/><path class="cls-16" d="M401.79,189.85v3.08c1.92,2.09,5.33,2.61,10.37,1.88v-4.47Z"/><path class="cls-9" d="M419.63,176.56a41.62,41.62,0,0,1-.57,4.57c-.95,5.12-3.09,10.16-7.71,11.77-10.44,3.66-14.18-5.12-15.67-10.24-.16-.56-.31-1.2-.44-1.87-.24-1.22-.42-2.58-.56-3.95-.18-1.66-.29-3.34-.36-4.82a7.24,7.24,0,0,1,4.72-7.1c4.29-1.61,10.79-2.88,17,.54a7.23,7.23,0,0,1,3.76,6.17C419.78,173,419.76,174.72,419.63,176.56Z"/><path class="cls-11" d="M418.34,176.84c-.35.63-2.31,6.54-2.86,7.37-1.23-2.66-7.19-.72-7.19-.72a4.06,4.06,0,0,1-1.15.18,3.85,3.85,0,0,1-1.12-.17h0s-6-1.86-7.22.93c-.55-.82-2.25-6.63-2.57-7.58h-1.52c.14,1.37.32,2.73.56,3.95.13.67.28,1.31.44,1.87,1.49,5.12,5.23,13.9,15.67,10.24,4.62-1.61,6.76-6.65,7.71-11.77a41.62,41.62,0,0,0,.57-4.57Zm-5.62,10.82h0a6.66,6.66,0,0,1-1.4,1c-2.65,1.41-2.94,1.19-4,1.24a8,8,0,0,1-4-1.07,11.87,11.87,0,0,1-1.91-1.43s-1.07-3.59,5.74-2.69C414,183.6,412.83,187,412.72,187.66Z"/><path class="cls-11" d="M411.66,177.69c0,.74.39,1.34.87,1.34s.87-.6.87-1.34-.39-1.35-.87-1.35S411.66,177,411.66,177.69Z"/><path class="cls-11" d="M401.39,177.66c0,.74.39,1.34.87,1.34s.88-.6.88-1.34-.39-1.34-.88-1.34S401.39,176.92,401.39,177.66Z"/><path class="cls-11" d="M416,173.9s-3.34-1.3-5.91-.21l.26,1.4s3.77-.31,5.67.44A2.4,2.4,0,0,0,416,173.9Z"/><path class="cls-11" d="M399.39,173.9s3.34-1.3,5.91-.21l-.26,1.4s-3.77-.31-5.67.44A2.35,2.35,0,0,1,399.39,173.9Z"/><path class="cls-16" d="M407.06,182.88a3.47,3.47,0,0,1-1.21-.25.32.32,0,0,1-.19-.43.34.34,0,0,1,.44-.18,2.1,2.1,0,0,0,1.35.13.37.37,0,0,0,.17-.31,47,47,0,0,0-.21-5.05.34.34,0,0,1,.31-.36.32.32,0,0,1,.36.3,47.9,47.9,0,0,1,.21,5.18,1,1,0,0,1-.49.8A1.44,1.44,0,0,1,407.06,182.88Z"/><path class="cls-10" d="M411.66,185.3c-.27,1.36-1.19,3.85-4.27,3.85s-4-2.28-4.25-3.85Z"/><path class="cls-11" d="M394.68,176.84h1.52c-.17-1.5-.41-4.15.85-4.52,4-1.2-1.18-3.95.62-5.33s6.26-.78,9.37-.88a67.49,67.49,0,0,1,9.37.22c1.22.27.55,2.26.1,3.8s1.5,3.24,1.83,4.84a7.22,7.22,0,0,1,0,1.87h1.27c.15-1.94.17-3.75.14-5.21a7.22,7.22,0,0,0-3.75-6.17c-6.17-3.42-12.67-2.15-17-.53a7.22,7.22,0,0,0-4.72,7.09C394.39,173.5,394.5,175.18,394.68,176.84Z"/><path class="cls-10" d="M170.9,345.85H93.43c1.28-7.78,7.45-13.42,14.63-13.4l24.11.07,24.1-.07C163.46,332.43,169.62,338.07,170.9,345.85Z"/><rect class="cls-10" x="99.52" y="344.73" width="4.22" height="72.23"/><rect class="cls-10" x="160.59" y="344.73" width="4.22" height="72.23"/><rect class="cls-2" x="103.75" y="364.97" width="56.84" height="4.07"/><path class="cls-3" d="M113.2,248.62s-12.94,17.25-14.66,32.3c-1.22,10.63,14.66,26.51,14.66,26.51l5.47-2.72-5.45-12.3c-1.94-6-4.33-8.35-2.57-14.39l3.95-8.51Z"/><path class="cls-3" d="M154,248.36s12.77,18.39,13.83,33.5c.91,13-14.72,25.57-14.72,25.57l-4.52-2.25,6.25-12.42c1.94-6,2.87-9.59.22-16.11l-3.35-7.14Z"/><path class="cls-5" d="M115.84,287.91l-8.58,27.28s37.13,4.74,48.48,1.67L150,287.15l4-38.79a55.27,55.27,0,0,0-17.46-4.28c-8.78-.63-14.33.82-23.31,4.54Z"/><path class="cls-3" d="M125.12,256.84c8.19-1,15.81-6.58,16.16-6.84a.46.46,0,0,0,.09-.64.45.45,0,0,0-.64-.1c-.09.07-9.06,6.69-17.68,6.8a.46.46,0,1,0,0,.92A20.36,20.36,0,0,0,125.12,256.84Z"/><polygon class="cls-9" points="131.72 403.01 132.39 409.03 138.79 409.18 139.33 404.18 131.72 403.01"/><path class="cls-12" d="M130.71,307.5s-16.59-.91-22.21,3.69S104,329,109.74,332.58s15.48,10.68,15.48,10.68L131.43,405l8.2.28s7.56-62,3.73-74S130.71,307.5,130.71,307.5Z"/><path class="cls-11" d="M140.39,402.19a6.91,6.91,0,0,1-.21,4.22l-9.44-.21a10.7,10.7,0,0,1-.19-4.14Z"/><path class="cls-10" d="M154.19,307H110.65l-4-23.52a3.34,3.34,0,0,1,3.29-3.9h45a3.34,3.34,0,0,1,3.29,3.9Z"/><path class="cls-2" d="M150.61,312.15H114.27a3.62,3.62,0,0,1-3.62-3.62V307h43.58v1.5A3.62,3.62,0,0,1,150.61,312.15Z"/><path class="cls-2" d="M136.3,294.29a3.78,3.78,0,1,1-3.78-3.78A3.78,3.78,0,0,1,136.3,294.29Z"/><polygon class="cls-9" points="104.5 386.06 103.08 392.03 108.83 393.16 111.18 387.84 104.5 386.06"/><path class="cls-11" d="M139.14,306.48s-11.11-3.83-17.62,4.21-17.42,76-17.42,76l7.47,3.09,24-60.32s19.57,11.17,21.94-4.71C159.43,312.15,139.14,306.48,139.14,306.48Z"/><path class="cls-13" d="M113.27,386.63a7.13,7.13,0,0,1-1.57,4.08l-9.19-3.25a11.07,11.07,0,0,1,1.15-4.12Z"/><path class="cls-5" d="M107.47,391.05a34.44,34.44,0,0,0-4.51-2c-1-.21-9.49,5.8-11.89,5.74-4.36-.1-5.75,6.29-3.28,7.16,7.16,2.51,20.4,2.2,20.4,2.2s2.94-7.95,3-10.63S109.36,392.25,107.47,391.05Z"/><path class="cls-10" d="M99.86,396.72a.53.53,0,0,0,.41,0,.51.51,0,0,0,.29-.67,7.9,7.9,0,0,0-2.3-3.12,3.65,3.65,0,0,0-3.68-.36.51.51,0,0,0-.2.7.53.53,0,0,0,.71.2,2.61,2.61,0,0,1,2.58.29,6.9,6.9,0,0,1,1.92,2.67A.55.55,0,0,0,99.86,396.72Z"/><path class="cls-10" d="M101.6,395.52a.53.53,0,0,0,.41,0,.5.5,0,0,0,.29-.66,8.08,8.08,0,0,0-2.31-3.13,3.65,3.65,0,0,0-3.67-.35.51.51,0,0,0-.21.69.54.54,0,0,0,.71.21,2.59,2.59,0,0,1,2.58.29,7,7,0,0,1,1.93,2.66A.5.5,0,0,0,101.6,395.52Z"/><path class="cls-10" d="M97.62,397.58a.51.51,0,0,0,.7-.65A8.15,8.15,0,0,0,96,393.8a3.65,3.65,0,0,0-3.67-.35.49.49,0,0,0-.21.69.54.54,0,0,0,.71.21,2.62,2.62,0,0,1,2.58.29,7.1,7.1,0,0,1,1.93,2.67A.51.51,0,0,0,97.62,397.58Z"/><path class="cls-5" d="M134.86,408.78a33.32,33.32,0,0,1,4.56-1.1c1,0,8,7,10.22,7.37,4.11.62,4.35,6.86,1.89,7.26C144.39,423.49,132,421,132,421s-1.44-8-1.05-10.49S132.88,409.59,134.86,408.78Z"/><path class="cls-10" d="M141.06,415.37a.47.47,0,0,1-.38-.05.48.48,0,0,1-.17-.67,7.56,7.56,0,0,1,2.69-2.56,3.49,3.49,0,0,1,3.51.28.49.49,0,0,1,.08.69.5.5,0,0,1-.7.07,2.49,2.49,0,0,0-2.48-.15,6.58,6.58,0,0,0-2.25,2.18A.49.49,0,0,1,141.06,415.37Z"/><path class="cls-10" d="M139.63,414a.47.47,0,0,1-.38-.05.48.48,0,0,1-.17-.67,7.56,7.56,0,0,1,2.69-2.56,3.5,3.5,0,0,1,3.51.28.47.47,0,0,1,.07.68.49.49,0,0,1-.7.08,2.47,2.47,0,0,0-2.47-.15,6.68,6.68,0,0,0-2.25,2.18A.49.49,0,0,1,139.63,414Z"/><path class="cls-10" d="M143,416.55a.48.48,0,0,1-.55-.72,7.59,7.59,0,0,1,2.68-2.56,3.48,3.48,0,0,1,3.51.28.47.47,0,0,1,.08.68.5.5,0,0,1-.7.08,2.47,2.47,0,0,0-2.47-.15,6.68,6.68,0,0,0-2.25,2.18A.49.49,0,0,1,143,416.55Z"/><path class="cls-11" d="M144.54,209.7s5.28,8.18,4.7,16.7.78,18.35-6.84,17.92-21.22,3.06-25.54-3.58S144.54,209.7,144.54,209.7Z"/><path class="cls-18" d="M146.5,224.74s1.37,12.35-4.49,15.75-10.1-.4-10.1-.4S144.26,222.88,146.5,224.74Z"/><path class="cls-16" d="M122.16,224.68s-2.1-2.8-3.67-.48.65,9.17,4.48,7.5Z"/><path class="cls-17" d="M122.14,229.58a.32.32,0,0,1-.32-.24,5,5,0,0,0-2.8-3,.33.33,0,0,1-.19-.42.32.32,0,0,1,.42-.18,5.55,5.55,0,0,1,3.2,3.41.32.32,0,0,1-.23.4Z"/><path class="cls-17" d="M119.92,228.51a.26.26,0,0,1-.17,0,.33.33,0,0,1-.1-.45,3.08,3.08,0,0,1,1.22-1,.31.31,0,0,1,.42.16.32.32,0,0,1-.16.43,2.2,2.2,0,0,0-.93.74A.35.35,0,0,1,119.92,228.51Z"/><path class="cls-16" d="M143.84,224.68s2.11-2.8,3.67-.48-.65,9.17-4.48,7.5Z"/><path class="cls-17" d="M143.87,229.58a.32.32,0,0,0,.31-.24,5,5,0,0,1,2.81-3,.32.32,0,1,0-.23-.6,5.52,5.52,0,0,0-3.2,3.41.32.32,0,0,0,.22.4Z"/><path class="cls-17" d="M146.08,228.51a.31.31,0,0,0,.18,0,.32.32,0,0,0,.09-.45,2.91,2.91,0,0,0-1.21-1,.32.32,0,0,0-.43.16.33.33,0,0,0,.17.43,2.28,2.28,0,0,1,.93.74A.33.33,0,0,0,146.08,228.51Z"/><path class="cls-9" d="M138.18,237.51v6.81s-2,3.47-4.78,3.71-5.18-3-5.18-3v-7Z"/><path class="cls-16" d="M138.18,237.51v3c-1.84,2.05-5.12,2.77-10,2.06V238Z"/><path class="cls-9" d="M145.37,220a66.14,66.14,0,0,1-.89,8.61,18.36,18.36,0,0,1-.43,1.83c-1.43,5-5,13.63-15.06,10.05-4.43-1.59-6.49-6.52-7.4-11.55a48.3,48.3,0,0,1-.67-9.32,7.12,7.12,0,0,1,3.61-6c5.92-3.36,12.18-2.11,16.29-.53A7.11,7.11,0,0,1,145.37,220Z"/><path class="cls-11" d="M128.58,225.74c0,.72-.37,1.31-.84,1.31s-.83-.59-.83-1.31.37-1.32.83-1.32S128.58,225,128.58,225.74Z"/><path class="cls-11" d="M138.92,225.74c0,.72-.37,1.31-.84,1.31s-.83-.59-.83-1.31.37-1.32.83-1.32S138.92,225,138.92,225.74Z"/><path class="cls-11" d="M126.09,221.35a14.09,14.09,0,0,1,3.58-.53.62.62,0,0,1,.62.73h0a.62.62,0,0,1-.64.5,15.87,15.87,0,0,0-4.91.61A.94.94,0,0,1,125,222,2.16,2.16,0,0,1,126.09,221.35Z"/><path class="cls-11" d="M139.61,221.38a14,14,0,0,0-3.58-.54.62.62,0,0,0-.62.73h0a.62.62,0,0,0,.64.51,15.84,15.84,0,0,1,4.91.6.93.93,0,0,0-.29-.66A2.16,2.16,0,0,0,139.61,221.38Z"/><path class="cls-16" d="M133.12,231.09a1.33,1.33,0,0,1-.71-.17,1,1,0,0,1-.47-.79,46.37,46.37,0,0,1,.2-5.07.32.32,0,1,1,.64.05,49.48,49.48,0,0,0-.19,5,.39.39,0,0,0,.15.3,2,2,0,0,0,1.3-.12.32.32,0,1,1,.25.59A3.35,3.35,0,0,1,133.12,231.09Z"/><path class="cls-10" d="M129,233.14a3.84,3.84,0,0,0,3.79,3.49c2.75,0,3.52-2.07,3.78-3.49Z"/><path class="cls-16" d="M132.76,238.52a3.32,3.32,0,0,1-1.51-.44.33.33,0,0,1-.11-.45.32.32,0,0,1,.45-.1h0a2.62,2.62,0,0,0,1.17.34,2.69,2.69,0,0,0,1.25-.35.32.32,0,0,1,.44.11.33.33,0,0,1-.11.45A3.37,3.37,0,0,1,132.76,238.52Z"/><path class="cls-11" d="M146.67,219.48a1.06,1.06,0,0,1-.78.6,20.22,20.22,0,0,1-.12,2.39c-.4,4.68-1.58,5.5-1.84,4.35a52.16,52.16,0,0,1-.08-6.61,14.38,14.38,0,0,1-1.72-.22l-1.08-4.54-.38,4.49c-1.63.56-5.43-.35-5.43-.35L134,215.12l-.79,4.31a9.11,9.11,0,0,1-5.49.39l-.7-4.64-1.62,4.64s-5.21,1.87-5.27,0a35.82,35.82,0,0,1,1.44-6.52,9.79,9.79,0,0,1,4.73-6,17.23,17.23,0,0,1,15.63-.23C146.87,210,146.67,219.48,146.67,219.48Z"/><path class="cls-11" d="M123,210.05s-4.29,5.1-5.7,14.21-3.36,15.83,2.13,18.84c5.94,3.25,5.42-3.42,5.34-5.24s-5.14-6.77-1.77-20.74C124.06,212.62,123,210.05,123,210.05Z"/><path class="cls-18" d="M122,228.87h0c0,.07,0,.43,0,1,0,.35,0,.78.07,1.26.2,3.07.8,8.37,2.55,10.21a5.92,5.92,0,0,0,3.6,1.24v-2.42a9.46,9.46,0,0,1-4-3.66,22.61,22.61,0,0,1-2.18-6.73Z"/><path class="cls-10" d="M145.44,231.85a.76.76,0,1,1-.76-.76A.76.76,0,0,1,145.44,231.85Z"/><rect class="cls-6" x="352.74" y="142.78" width="23.77" height="23.77" rx="2.64"/><path class="cls-8" d="M372.72,154.66a8.1,8.1,0,1,1-8.1-8.09A8,8,0,0,1,372.72,154.66Z"/><path class="cls-10" d="M370.86,159.81a8.09,8.09,0,0,1-12.48,0l.11-.21a2.82,2.82,0,0,1,.71-.89,2.72,2.72,0,0,1,1-.55c1.32-.4,2.54-.81,3.23-2a3.46,3.46,0,0,1-1.62-1.73c-.92.2-1.58-1.5-1.09-1.95a.72.72,0,0,1,.54-.2,3.37,3.37,0,0,1,6.73,0,.72.72,0,0,1,.54.2c.49.45-.17,2.15-1.09,1.95a3.06,3.06,0,0,1-1.5,1.63,4.89,4.89,0,0,0,3.1,2.09,2.69,2.69,0,0,1,1,.55,2.82,2.82,0,0,1,.71.89Z"/><rect class="cls-6" x="43.88" y="269.18" width="23.77" height="23.77" rx="2.64"/><path class="cls-10" d="M56.12,273.18a5.2,5.2,0,0,0-5.56,5.19,5.13,5.13,0,0,0,.73,2.66c.68,1.16,1.39,2.3,2.05,3.48L55.8,289l3.76-6.79.69-1.17a5,5,0,0,0,.71-2.75A5.22,5.22,0,0,0,56.12,273.18ZM55.76,280a2.2,2.2,0,1,1,2.2-2.2A2.21,2.21,0,0,1,55.76,280Z"/><path class="cls-5" d="M455.65,174.38a5.31,5.31,0,1,1-5.31,5.3A5.31,5.31,0,0,1,455.65,174.38Zm0,8.94a3.64,3.64,0,1,0-3.64-3.64A3.64,3.64,0,0,0,455.65,183.32Z"/><path class="cls-6" d="M436.55,155.76a5.31,5.31,0,1,1-5.31,5.31A5.31,5.31,0,0,1,436.55,155.76Zm0,9a3.65,3.65,0,1,0-3.64-3.64A3.65,3.65,0,0,0,436.55,164.71Z"/><path class="cls-5" d="M430,138.52a.83.83,0,0,1,.83.83V143a.83.83,0,0,1-1.66,0v-3.67A.83.83,0,0,1,430,138.52Z"/><path class="cls-5" d="M430,132.09a.83.83,0,0,1,.83.83v3.68a.83.83,0,0,1-1.66,0v-3.68A.83.83,0,0,1,430,132.09Z"/><path class="cls-5" d="M424.84,137.14h3.3a.83.83,0,1,1,0,1.66h-3.3a.83.83,0,1,1,0-1.66Z"/><path class="cls-5" d="M431.85,137.14h3.29a.83.83,0,1,1,0,1.66h-3.29a.83.83,0,1,1,0-1.66Z"/><path class="cls-6" d="M459.29,159.08a.84.84,0,0,1,.83.84v3.67a.83.83,0,0,1-1.66,0v-3.67A.84.84,0,0,1,459.29,159.08Z"/><path class="cls-6" d="M459.29,152.66a.83.83,0,0,1,.83.83v3.67a.83.83,0,1,1-1.66,0v-3.67A.83.83,0,0,1,459.29,152.66Z"/><path class="cls-6" d="M454.14,157.71h3.3a.83.83,0,1,1,0,1.66h-3.3a.83.83,0,1,1,0-1.66Z"/><path class="cls-6" d="M461.15,157.71h3.29a.83.83,0,1,1,0,1.66h-3.29a.83.83,0,1,1,0-1.66Z"/><path class="cls-5" d="M127,106.62a5.31,5.31,0,1,1-5.31,5.3A5.31,5.31,0,0,1,127,106.62Zm0,1.66a3.65,3.65,0,1,0,3.64,3.64A3.66,3.66,0,0,0,127,108.28Z"/><path class="cls-6" d="M107.71,89.09a5.31,5.31,0,1,1-5.31,5.31A5.31,5.31,0,0,1,107.71,89.09Zm0,1.66a3.65,3.65,0,1,0,3.64,3.65A3.65,3.65,0,0,0,107.71,90.75Z"/><path class="cls-5" d="M100.71,119.42a.83.83,0,0,0,.83.83h3.67a.83.83,0,0,0,0-1.66h-3.67A.83.83,0,0,0,100.71,119.42Z"/><path class="cls-5" d="M94.29,119.42a.83.83,0,0,0,.83.83h3.67a.83.83,0,0,0,0-1.66H95.12A.83.83,0,0,0,94.29,119.42Z"/><path class="cls-5" d="M99.33,114.27v3.3a.84.84,0,0,0,1.67,0v-3.3a.84.84,0,0,0-1.67,0Z"/><path class="cls-5" d="M99.33,121.28v3.29a.84.84,0,1,0,1.67,0v-3.29a.84.84,0,1,0-1.67,0Z"/><path class="cls-6" d="M139.58,90.75a.84.84,0,0,0,.83.84h3.67a.84.84,0,0,0,.83-.84.83.83,0,0,0-.83-.83h-3.67A.83.83,0,0,0,139.58,90.75Z"/><path class="cls-6" d="M133.16,90.75a.84.84,0,0,0,.83.84h3.67a.84.84,0,0,0,.83-.84.83.83,0,0,0-.83-.83H134A.83.83,0,0,0,133.16,90.75Z"/><path class="cls-6" d="M138.2,85.6v3.3a.84.84,0,0,0,1.67,0V85.6a.84.84,0,0,0-1.67,0Z"/><path class="cls-6" d="M138.2,92.61v3.3a.84.84,0,0,0,1.67,0v-3.3a.84.84,0,0,0-1.67,0Z"/><path class="cls-2" d="M360.84,116.37a.69.69,0,0,0,.35,0c1.26-.31,2-.44,2-.44a.66.66,0,0,0,.57-.76.7.7,0,0,0-.82-.53s-.78.13-2.1.46a.65.65,0,0,0-.5.8A.66.66,0,0,0,360.84,116.37Z"/><path class="cls-2" d="M320.06,146.58c-.65,1.12-1.28,2.28-1.87,3.45a.73.73,0,0,1-.81.36l-.13,0a.63.63,0,0,1-.33-.87c.6-1.2,1.24-2.38,1.91-3.53a.72.72,0,0,1,.95-.26A.64.64,0,0,1,320.06,146.58Z"/><path class="cls-2" d="M316.54,153.58c-.51,1.18-1,2.4-1.43,3.63a.72.72,0,0,1-.84.43h0a.65.65,0,0,1-.44-.84c.45-1.25.94-2.5,1.45-3.7a.73.73,0,0,1,.92-.37A.65.65,0,0,1,316.54,153.58Z"/><path class="cls-2" d="M310.58,172.88a.66.66,0,0,1-.52-.72c.18-1.31.39-2.62.63-3.9a.69.69,0,0,1,.81-.53.65.65,0,0,1,.57.76c-.23,1.26-.44,2.55-.62,3.84a.69.69,0,0,1-.78.57Z"/><path class="cls-2" d="M313.4,160.11a.64.64,0,0,1,.49.81c-.17.58-.34,1.16-.49,1.74s-.36,1.34-.52,2a.7.7,0,0,1-.84.5h0a.67.67,0,0,1-.51-.79c.17-.69.34-1.38.53-2s.32-1.19.5-1.78a.71.71,0,0,1,.85-.46Z"/><path class="cls-2" d="M322.15,143.24a.71.71,0,0,1-.76.29.9.9,0,0,1-.21-.08.64.64,0,0,1-.21-.91c.75-1.11,1.54-2.22,2.36-3.28a.73.73,0,0,1,1-.14.64.64,0,0,1,.16.92C323.66,141.08,322.89,142.15,322.15,143.24Z"/><path class="cls-2" d="M357.25,117.49c-1.28.41-2.58.87-3.86,1.37a.67.67,0,0,1-.44,0,.7.7,0,0,1-.48-.39.66.66,0,0,1,.38-.86c1.31-.5,2.64-1,3.95-1.39a.7.7,0,0,1,.89.41A.64.64,0,0,1,357.25,117.49Z"/><path class="cls-2" d="M346,122.24a.79.79,0,0,1-.52.06A.68.68,0,0,1,345,122a.64.64,0,0,1,.27-.9c1.22-.63,2.48-1.25,3.74-1.82a.72.72,0,0,1,.94.31.65.65,0,0,1-.33.88C348.39,121,347.15,121.61,346,122.24Z"/><path class="cls-2" d="M332.64,131.34a.74.74,0,0,1-.65.16.72.72,0,0,1-.34-.19.63.63,0,0,1,0-.93c1-.9,2.08-1.78,3.16-2.61a.73.73,0,0,1,1,.08.63.63,0,0,1-.09.93C334.68,129.6,333.64,130.46,332.64,131.34Z"/><path class="cls-2" d="M339,126.41a.73.73,0,0,1-.59.1.66.66,0,0,1-.39-.25.63.63,0,0,1,.15-.92c1.13-.77,2.3-1.52,3.48-2.23a.74.74,0,0,1,1,.2.64.64,0,0,1-.21.92C341.25,124.92,340.1,125.65,339,126.41Z"/><path class="cls-2" d="M327,137a.73.73,0,0,1-.71.22.9.9,0,0,1-.28-.13.63.63,0,0,1-.09-.93c.89-1,1.83-2,2.79-3a.74.74,0,0,1,1,0,.64.64,0,0,1,0,.93C328.78,135,327.86,136,327,137Z"/><polygon class="cls-5" points="361.54 111.91 360.12 100.92 397.34 106.26 361.54 111.91"/><polygon class="cls-3" points="397.34 106.26 362.96 114.71 362.87 114.73 361.14 116.71 361.54 111.91 397.34 106.26"/><polygon class="cls-4" points="361.14 116.71 364.23 116.67 362.87 114.73 361.14 116.71"/><polygon class="cls-5" points="367.19 113.67 362.87 114.73 369.91 124.75 397.34 106.26 367.19 113.67"/></g></g></svg>