<svg id="Layer_1" data-name="Layer 1" xmlns="http://www.w3.org/2000/svg" viewBox="0 0 83.73 83.73"><defs><style>.cls-1{fill:#4683c4;}</style></defs><path class="cls-1" d="M48.41,55.73c0-3.79,0-7.58,0-11.37,0-1,.31-1.42,1.37-1.38,1.71.08,3.44,0,5.15.05,1.08,0,1.5-.4,1.64-1.38.36-2.39.69-4.79,1.15-7.17.22-1.16-.25-1.4-1.23-1.39-2.12,0-4.24-.06-6.35,0-1.29.05-1.78-.43-1.62-1.68,0-.3,0-.62,0-.92.16-2.23,1.13-3.17,3.35-3.2,1.58,0,3.17,0,4.76,0,1,0,1.46-.29,1.44-1.35,0-2.51,0-5,0-7.54,0-.94-.35-1.35-1.33-1.31-3,.12-6,.08-9,.31a9.2,9.2,0,0,0-8.87,8,45.93,45.93,0,0,0-.41,6.44c0,.9-.32,1.27-1.24,1.24-1.32,0-2.64,0-4,0-.75,0-1.16.27-1.16,1.07q0,3.9,0,7.8c0,.82.41,1.06,1.17,1,1.14,0,2.29,0,3.44,0,1.73,0,1.73,0,1.73,1.75,0,7.36,0,14.72,0,22.08,0,1.18.33,1.65,1.59,1.6,2.28-.09,4.58-.08,6.87,0,1.12,0,1.55-.25,1.53-1.46C48.36,63.22,48.41,59.47,48.41,55.73Z"/></svg>