<svg id="Layer_1" data-name="Layer 1" xmlns="http://www.w3.org/2000/svg" viewBox="0 0 83.73 83.73"><defs><style>.cls-1{fill:#4683c4;}</style></defs><path class="cls-1" d="M63.21,68.48H74.7c0-.32.07-.56.07-.8,0-6.63,0-13.26,0-19.89a21.6,21.6,0,0,0-.81-5.47c-1.36-4.89-4.49-8.11-9.58-9s-9.42.21-12.61,4.52a2.89,2.89,0,0,0-.25.68l-.41-.3c0-1.06-.06-2.12,0-3.18s-.27-1.21-1.19-1.19c-3.09.05-6.18,0-9.27,0a8.54,8.54,0,0,0-1,.11v34.5H51.06V61.34c0-4.37-.05-8.74,0-13.1a6.34,6.34,0,0,1,6-6.11c3.13-.16,5.33,1.7,5.85,5.13a31.26,31.26,0,0,1,.26,4.54C63.23,57.32,63.21,62.83,63.21,68.48Zm-41.62,0H33V33.91c-.48,0-.89-.06-1.29-.06-2.92,0-5.85,0-8.77,0-1.14,0-1.44.32-1.44,1.46,0,10.62,0,21.24,0,31.86C21.54,67.58,21.57,68,21.59,68.47Zm4.93-39.4c3.54,0,5.73-1.21,6.75-3.36A6,6,0,0,0,31.06,18c-2.94-1.75-7.23-1-9,1.55a5.78,5.78,0,0,0-.44,6.3A5.64,5.64,0,0,0,26.52,29.07Z"/></svg>