<svg xmlns="http://www.w3.org/2000/svg" viewBox="0 0 500 500"><defs><style>.cls-1{isolation:isolate;}.cls-2{fill:#e6e6e6;}.cls-3{fill:#e0e0e0;}.cls-15,.cls-4{fill:#f9f9f9;}.cls-22,.cls-5{fill:#f4f4f4;}.cls-6{fill:#efefef;}.cls-18,.cls-21,.cls-23,.cls-7{fill:#fff;}.cls-8{fill:#ff8a7b;}.cls-16,.cls-17,.cls-9{fill:#007cff;}.cls-10{opacity:0.2;}.cls-11{fill:#e6ecf1;}.cls-11,.cls-22{mix-blend-mode:multiply;}.cls-12{fill:#1a2e35;}.cls-13{fill:#e97064;}.cls-14{fill:#ff5652;}.cls-15{opacity:0.56;}.cls-16{opacity:0.07;}.cls-17{opacity:0.47;}.cls-18{opacity:0.1;}.cls-19{opacity:0.6;}.cls-20,.cls-21{opacity:0.4;}.cls-23{opacity:0.3;}</style></defs><g class="cls-1"><g id="Layer_1" data-name="Layer 1"><rect class="cls-2" x="5.76" y="380.19" width="469.32" height="0.23"/><rect class="cls-2" x="91.83" y="394.39" width="31.09" height="0.23"/><rect class="cls-2" x="63.98" y="394.39" width="18.02" height="0.23"/><rect class="cls-2" x="185.37" y="397.85" width="18.01" height="0.23"/><rect class="cls-2" x="256.77" y="403.09" width="40.54" height="0.23"/><rect class="cls-2" x="242.47" y="403.09" width="5.94" height="0.23"/><rect class="cls-2" x="343.35" y="397.85" width="87.93" height="0.23"/><path class="cls-2" d="M228.22,338.33H47A5.36,5.36,0,0,1,41.62,333V78.2A5.37,5.37,0,0,1,47,72.84H228.22a5.37,5.37,0,0,1,5.36,5.36V333A5.36,5.36,0,0,1,228.22,338.33ZM47,73.08a5.13,5.13,0,0,0-5.13,5.12V333A5.13,5.13,0,0,0,47,338.1H228.22a5.13,5.13,0,0,0,5.13-5.13V78.2a5.13,5.13,0,0,0-5.13-5.12Z"/><path class="cls-2" d="M431.25,338.33H250a5.37,5.37,0,0,1-5.36-5.36V78.2A5.37,5.37,0,0,1,250,72.84H431.25a5.37,5.37,0,0,1,5.36,5.36V333A5.37,5.37,0,0,1,431.25,338.33ZM250,73.08a5.12,5.12,0,0,0-5.12,5.12V333A5.13,5.13,0,0,0,250,338.1H431.25a5.13,5.13,0,0,0,5.12-5.13V78.2a5.12,5.12,0,0,0-5.12-5.12Z"/><rect class="cls-3" x="236.11" y="300.01" width="20.64" height="81.88"/><polygon class="cls-4" points="252.82 381.9 256.75 381.9 256.75 370.75 248.72 370.75 252.82 381.9"/><rect class="cls-3" x="145.66" y="300.01" width="20.64" height="81.88"/><rect class="cls-4" x="162.88" y="300.01" width="93.86" height="75.04"/><path class="cls-3" d="M253.34,303.7v19.86H166.29V303.7h87.05m.36-.36H165.92v20.58H253.7V303.34Z"/><polygon class="cls-4" points="166.8 381.9 162.88 381.9 162.88 370.75 170.91 370.75 166.8 381.9"/><path class="cls-2" d="M207.74,313.63a2.08,2.08,0,1,0,2.07-2.08A2.08,2.08,0,0,0,207.74,313.63Z"/><path class="cls-3" d="M253.34,327.61v19.85H166.29V327.61h87.05m.36-.37H165.92v20.58H253.7V327.24Z"/><path class="cls-2" d="M207.74,337.53a2.08,2.08,0,1,0,2.07-2.07A2.08,2.08,0,0,0,207.74,337.53Z"/><path class="cls-3" d="M253.34,351.51v19.85H166.29V351.51h87.05m.36-.36H165.92v20.58H253.7V351.15Z"/><path class="cls-2" d="M207.74,361.44a2.08,2.08,0,1,0,2.07-2.08A2.07,2.07,0,0,0,207.74,361.44Z"/><rect class="cls-3" x="133.05" y="252.46" width="20.64" height="129.43"/><polygon class="cls-4" points="149.77 381.9 153.69 381.9 153.69 370.75 145.66 370.75 149.77 381.9"/><rect class="cls-3" x="55.91" y="252.46" width="20.64" height="129.43"/><rect class="cls-4" x="73.13" y="252.46" width="80.56" height="122.59"/><path class="cls-3" d="M150.22,255.93v27.76H76.6V255.93h73.62m.43-.42H76.17v28.61h74.48V255.51Z"/><path class="cls-3" d="M150.22,287.06v73.63H115.16V287.06h35.06m.43-.43H114.73v74.48h35.92V286.63Z"/><path class="cls-3" d="M111.67,287.06v73.63H76.6V287.06h35.07m.43-.43H76.17v74.48H112.1V286.63Z"/><polygon class="cls-4" points="77.05 381.9 73.13 381.9 73.13 370.75 81.16 370.75 77.05 381.9"/><path class="cls-2" d="M111.34,269.81a2.08,2.08,0,1,0,2.07-2.07A2.08,2.08,0,0,0,111.34,269.81Z"/><path class="cls-2" d="M118.77,322.12a2.08,2.08,0,1,0,2.08-2.08A2.08,2.08,0,0,0,118.77,322.12Z"/><path class="cls-2" d="M103.9,322.12A2.08,2.08,0,1,0,106,320,2.08,2.08,0,0,0,103.9,322.12Z"/><path class="cls-3" d="M101.57,216.37H92.86a92.13,92.13,0,0,1,1.51,12.79c0,4.74-6.62,23.3,2.84,23.3s2.84-18.56,2.84-23.3A91.55,91.55,0,0,1,101.57,216.37Z"/><path class="cls-5" d="M68.46,235.41v5.66a11.43,11.43,0,0,0,11.39,11.39h5.66a11.43,11.43,0,0,0,11.4-11.39v-5.66Z"/><path class="cls-3" d="M189.41,288.08c0,6.56,7.36,11.93,16.34,11.93h8.11c9,0,16.33-5.37,16.33-11.93Z"/><path class="cls-3" d="M404.31,278.48c-4.92,4-11.71,11.36-17.93,21.7a56.16,56.16,0,0,0-7.74,23.64c0-10.79.06-22.39.1-33.33,1.25-2.82,4.1-9.31,6.15-14.44,6.83-17.11,9.37-21.32,15.51-36.08,8.2-19.69,16.59-43.05,14.19-41.18-4.9,3.8-23.67,39-25.7,44a140.56,140.56,0,0,0-10.13,42.1c0-10.28.07-19.72.11-27,.13-23.76.53-31.42.73-33.79.76-1.2,1.66-2.6,2.18-3.35,4.41-6.38,6.11-11.81,10.27-21.32,5.88-13.48,10.95-37.4,9.47-36.2-6.17,5-11,15.83-17.44,29.59s-4.57,21.69-5.83,33.44c-.27,2.31-.48,11-.62,23.08-1.66-12.85-4.77-21.33-10.45-29-7-9.47-13.75-15.87-18.7-19.21s8.56,19.92,15,30.07c5.76,9,11.06,17,14.05,24.88-.15,16.35-.23,37.06-.23,56.33-1.48-8.77-3.9-18.22-7.13-25.53-3.89-8.79-9.86-22.27-14.61-26.84-1.14-1.1,5,25.12,8.89,32.09s6.81,13.54,9.27,17.49c.58.92,2.49,4.48,3.58,6.52,0,23.53.13,44.3.34,51.37h1c-.07-1.83-.09-13.8-.06-29.64,2.44-8.6,8-18.42,12.66-27.38C396.33,300.69,409.22,274.46,404.31,278.48Z"/><polygon class="cls-6" points="392.89 381.9 363.47 381.9 361.25 353.06 395.11 353.06 392.89 381.9"/><polygon class="cls-5" points="397.3 356.42 359.05 356.42 357.96 346.69 398.39 346.69 397.3 356.42"/><rect class="cls-3" x="69.78" y="92.13" width="52.61" height="57.77"/><rect class="cls-5" x="73.74" y="92.13" width="54.34" height="57.77"/><rect class="cls-7" x="76.58" y="98.39" width="48.67" height="45.24" transform="translate(221.93 20.1) rotate(90)"/><rect class="cls-5" x="88.38" y="109.36" width="25.07" height="23.31" transform="translate(221.93 20.1) rotate(90)"/><rect class="cls-3" x="341.77" y="98.86" width="48.87" height="53.67"/><rect class="cls-5" x="345.45" y="98.86" width="50.48" height="53.67"/><rect class="cls-7" x="348.09" y="104.68" width="45.21" height="42.03" transform="translate(496.39 -245) rotate(90)"/><circle class="cls-5" cx="370.69" cy="125.69" r="13.11"/><rect class="cls-3" x="138.02" y="126.57" width="39.03" height="42.86"/><rect class="cls-5" x="140.96" y="126.57" width="40.31" height="42.86"/><rect class="cls-7" x="143.07" y="131.22" width="36.1" height="33.56" transform="translate(309.12 -13.12) rotate(90)"/><polygon class="cls-5" points="161.12 138.88 151.94 154.77 170.29 154.77 161.12 138.88"/><ellipse class="cls-5" cx="240.41" cy="411.96" rx="181.99" ry="10.63"/><path class="cls-8" d="M333.57,174.66l-9.31-3.77S312,193.3,308.45,194.43c-4.79,1.54-14.69,5.82-20.57,6.62-.8.93-2.11,3.85-2,4.92,7.9,2.63,25.24-.87,29-3.62C323.32,196.06,333.57,174.66,333.57,174.66Z"/><path class="cls-9" d="M336.44,169.58c1.73,6.42-7.68,19.31-7.68,19.31L316.41,182s2.3-5.3,5.12-10.7C326.09,162.55,334.46,162.25,336.44,169.58Z"/><path class="cls-10" d="M336.44,169.58c1.73,6.42-7.68,19.31-7.68,19.31L316.41,182s2.3-5.3,5.12-10.7C326.09,162.55,334.46,162.25,336.44,169.58Z"/><path class="cls-10" d="M321.34,184.72l4.85,2.72.85-14.89C324.22,174.72,322.22,181.25,321.34,184.72Z"/><path class="cls-9" d="M328.33,164.74s-9.59,21.34-4,61.09h37.8c.6-5.81-1.39-34.11,5.81-61.45a96.51,96.51,0,0,0-12.56-1.6,138.87,138.87,0,0,0-16.07,0A73.32,73.32,0,0,0,328.33,164.74Z"/><path class="cls-10" d="M328.33,164.74s-9.59,21.34-4,61.09h37.8c.6-5.81-1.39-34.11,5.81-61.45a96.51,96.51,0,0,0-12.56-1.6,138.87,138.87,0,0,0-16.07,0A73.32,73.32,0,0,0,328.33,164.74Z"/><path class="cls-11" d="M319.56,412.8c-.06,1,14.27,1.83,32,1.83s32.17-.82,32.22-1.83-14.27-1.82-32-1.82S319.62,411.8,319.56,412.8Z"/><rect class="cls-8" x="341.62" y="388.23" width="7.21" height="16.04" transform="translate(-119.39 150.62) rotate(-21.07)"/><polygon class="cls-8" points="374.69 405.59 367.62 405.59 365.03 389.22 372.09 389.22 374.69 405.59"/><path class="cls-12" d="M367.17,404.77h7.93a.58.58,0,0,1,.58.48l1,6.29a1.11,1.11,0,0,1-1.11,1.25c-2.77-.05-4.11-.21-7.6-.21-2.15,0-6.59.22-9.55.22s-3.18-2.93-1.95-3.19c5.51-1.19,7.66-2.84,9.49-4.4A1.78,1.78,0,0,1,367.17,404.77Z"/><path class="cls-12" d="M343.64,402.3l7.53-2.19a.58.58,0,0,1,.69.29l2.79,5.63a1.08,1.08,0,0,1-.7,1.49c-2.73.75-4.56,1.21-8,2.2-2.36.69-4.75,1.81-7.09,2.55-1.61.51-5.4.53-7.36.53-2.9,0-3.55-3.05-2.31-3.19,3.15-.36,3.57-.19,5.31-1.06a24.44,24.44,0,0,0,7.58-5.24A3.48,3.48,0,0,1,343.64,402.3Z"/><path class="cls-8" d="M289.07,201l-7.78-3.27-3.2,8.61a31.76,31.76,0,0,0,9.61,0Z"/><polygon class="cls-8" points="275.51 197.5 275.31 203.23 278.09 206.32 281.29 197.71 275.51 197.5"/><rect class="cls-13" x="340.22" y="388.49" width="7.21" height="8.27" transform="translate(-118.32 150.14) rotate(-21.11)"/><polygon class="cls-13" points="372.1 389.23 365.03 389.23 366.37 397.66 373.44 397.66 372.1 389.23"/><path class="cls-10" d="M323.13,215.08c.13,1.69.3,3.43.5,5.22l28.11-9.13a20.11,20.11,0,0,0,10.81-7.84c.11-2.51.25-5.14.46-7.89.1-1.34.22-2.71.34-4.1s.29-2.92.46-4.41Z"/><path class="cls-7" d="M332.31,184.29l-1-.11c.56-4.69,4-8.39,7.75-8.3l0,1C335.88,176.75,332.81,180.09,332.31,184.29Z"/><path class="cls-7" d="M337.31,193h-.16l0-1c3.23.12,6.26-3.24,6.76-7.45l1,.12C344.35,189.28,341,193,337.31,193Z"/><path class="cls-8" d="M354.85,144.69c-1.32,5.17-2.88,14.64.53,18.09,0,0-2.38,5.25-12,5.25-8.78,0-4.08-5.25-4.08-5.25,5.85-1.37,5.95-5.65,5.18-9.67Z"/><path class="cls-13" d="M350.63,148.13l-6.13,5a17.42,17.42,0,0,1,.33,2.85c1.79,1.78,5.38-2.74,5.75-5A7.73,7.73,0,0,0,350.63,148.13Z"/><path class="cls-13" d="M334,144.63a6.2,6.2,0,0,0,4,2.94c2.26.5,3.39-1.57,2.77-3.66-.56-1.88-2.41-4.4-4.67-4A3.14,3.14,0,0,0,334,144.63Z"/><path class="cls-12" d="M337.68,128.08c-3.51,1.61-4.75,15.55-.33,17.61S344.33,125,337.68,128.08Z"/><path class="cls-8" d="M355.92,136.91c-.84,7-1,11.12-4.72,14.71a9,9,0,0,1-15.35-4.79c-1.14-6.29.43-16.68,7.44-19.46A9,9,0,0,1,355.92,136.91Z"/><path class="cls-12" d="M344.39,131.71c5.19-1.33,9-2.24,7.65,2.1-1.82,5.77-4,11.37-1.07,11.63,1.78.15,9.66-3.19,8.66-6.57-.87-3,2.79-3.75,3.47-5.25,2.43-5.41-4.52-4.71-3.28-8s-5.61-8.58-9.38-6c-6.11,4.26-16.6,4.2-11.08-2.79,3.95-5-3.1-4-3.1-4s4.26,2.53-2.91,6.43C325.75,123.49,332.71,134.69,344.39,131.71Z"/><path class="cls-8" d="M358.63,144.63a7.23,7.23,0,0,1-4.33,2.94c-2.31.5-3.2-1.57-2.33-3.66.78-1.88,2.92-4.4,5.13-4S359.87,142.79,358.63,144.63Z"/><path class="cls-9" d="M324.33,225.83s-6.35,56.78-6.84,78.33C317,326.58,339,396.52,339,396.52l11.27-4.74s-13.12-63.89-11.3-85.91c2-24,10.22-80,10.22-80Z"/><path class="cls-10" d="M340.1,241.42c-5.06,10.49-1.65,31.24,1.09,43.54,1-8.68,2.27-18.11,3.45-26.83C344.52,244.73,343.48,234.38,340.1,241.42Z"/><path class="cls-9" d="M349.76,388.1c.05,0,1.33,3.6,1.33,3.6l-13,5.45-2.05-3.8Z"/><path class="cls-9" d="M337.74,225.83s4.85,54,8.07,74.24c3.52,22.15,17.36,96,17.36,96h12.94s-7.75-72-9.22-93.95c-1.59-23.81-4.76-76.25-4.76-76.25Z"/><path class="cls-9" d="M376.31,392.66c.05,0,.43,3.61.43,3.61H362.52l-1-4.15Z"/><path class="cls-10" d="M371.35,388.38a.12.12,0,0,1-.12-.1c-.07-.66-7.06-65.68-8.38-85.39-1.43-21.39-4.3-68.81-4.33-69.29a.14.14,0,0,1,.12-.13h0a.12.12,0,0,1,.12.12c0,.47,2.9,47.9,4.33,69.29,1.32,19.7,8.31,84.71,8.38,85.37a.12.12,0,0,1-.11.13Z"/><path class="cls-12" d="M345.19,138.87c0,.57-.36,1-.74,1s-.64-.46-.61-1,.36-1,.73-1S345.22,138.3,345.19,138.87Z"/><path class="cls-12" d="M338.75,138.87c0,.57-.37,1-.74,1s-.65-.46-.61-1,.36-1,.73-1S338.78,138.3,338.75,138.87Z"/><path class="cls-14" d="M340.78,139.15a21.87,21.87,0,0,1-3,4.87,3.19,3.19,0,0,0,2.69.52Z"/><path class="cls-12" d="M340.94,146.93a.17.17,0,0,1-.16-.17.19.19,0,0,1,.18-.17,4.9,4.9,0,0,0,3.79-1.76.17.17,0,0,1,.23-.05.16.16,0,0,1,0,.23A5.09,5.09,0,0,1,340.94,146.93Z"/><path class="cls-12" d="M346.33,137.13a.33.33,0,0,1-.29,0,2.61,2.61,0,0,0-2.39-.25.32.32,0,0,1-.44-.16.35.35,0,0,1,.18-.45,3.31,3.31,0,0,1,3,.28.32.32,0,0,1,.08.46A.29.29,0,0,1,346.33,137.13Z"/><path class="cls-12" d="M336.25,135.26a.29.29,0,0,1-.12-.07.33.33,0,0,1,0-.47,3.48,3.48,0,0,1,2.89-1.17.31.31,0,0,1,.26.38.36.36,0,0,1-.4.28h0a2.81,2.81,0,0,0-2.28.95A.36.36,0,0,1,336.25,135.26Z"/><path class="cls-8" d="M371.57,173.62,361.8,171s-9.57,23.57-12.95,25.1c-4.6,2.1-16.26,9.34-21.21,12.83-.27,1.17-.06,4.28.57,5.13,8.42-1.53,24.62-7.76,28-10.92C363.91,195.94,371.57,173.62,371.57,173.62Z"/><path class="cls-9" d="M364.76,406a2.09,2.09,0,0,1-1.34-.35,1,1,0,0,1-.3-.89.57.57,0,0,1,.32-.47c.79-.4,3,1,3.25,1.16a.15.15,0,0,1,.06.17.16.16,0,0,1-.13.13A8.45,8.45,0,0,1,364.76,406Zm-1-1.46a.67.67,0,0,0-.22,0,.24.24,0,0,0-.11.2.61.61,0,0,0,.19.61,3.37,3.37,0,0,0,2.5.13A6.28,6.28,0,0,0,363.79,404.54Z"/><path class="cls-9" d="M366.58,405.76l-.08,0c-.71-.4-2-1.95-1.83-2.74a.58.58,0,0,1,.56-.44.87.87,0,0,1,.7.22c.78.67.83,2.71.83,2.8a.16.16,0,0,1-.09.15Zm-1.26-2.87h-.07c-.22,0-.25.12-.26.17-.11.46.72,1.63,1.41,2.18a3.77,3.77,0,0,0-.7-2.21A.57.57,0,0,0,365.32,402.89Z"/><path class="cls-9" d="M339.83,404.84a2.78,2.78,0,0,1-1.77,0,.89.89,0,0,1-.46-.72.56.56,0,0,1,.2-.5c.75-.67,3.81.05,4.16.14a.14.14,0,0,1,.12.14.18.18,0,0,1-.11.17A12.55,12.55,0,0,1,339.83,404.84Zm-1.52-1.12a.7.7,0,0,0-.3.14.19.19,0,0,0-.07.19.57.57,0,0,0,.29.48c.5.27,1.66.06,3.15-.57A9.06,9.06,0,0,0,338.31,403.72Z"/><path class="cls-9" d="M341.94,404.07h-.07c-.91-.16-2.85-1.24-2.87-2.05,0-.19.09-.45.53-.6a1.21,1.21,0,0,1,1,.05c1,.51,1.55,2.31,1.57,2.38a.18.18,0,0,1,0,.17A.13.13,0,0,1,341.94,404.07Zm-2.22-2.37-.1,0c-.29.1-.28.22-.28.26,0,.49,1.36,1.38,2.31,1.68a3.68,3.68,0,0,0-1.31-1.9A.9.9,0,0,0,339.72,401.7Z"/><path class="cls-8" d="M328.44,208.4l-9.79,4.5-1.14,2.77,3.62,2.43s6.75-.73,8.68-5.07Z"/><path class="cls-12" d="M328.85,214.24a13.26,13.26,0,0,0-1.82-5.31l1.55-1.16a14.91,14.91,0,0,1,2.18,6.15Z"/><path class="cls-12" d="M330.52,209.73a1.88,1.88,0,0,1-3.43,1.39,1.88,1.88,0,0,1,3.43-1.39Z"/><polygon class="cls-8" points="312.04 216.54 313.34 217.86 322.12 214.1 318.65 212.91 312.04 216.54"/><path class="cls-10" d="M349.76,388.1c.05,0,1.33,3.6,1.33,3.6l-13,5.45-2.05-3.8Z"/><path class="cls-10" d="M376.31,392.66c.05,0,.43,3.61.43,3.61H362.52l-1-4.15Z"/><path class="cls-9" d="M374.11,170.92c2.59,8.32-7.47,19.69-7.47,19.69l-13.93-5.69a141.76,141.76,0,0,1,5.7-14.15C362.65,161.57,371.51,162.52,374.11,170.92Z"/><path class="cls-10" d="M374.11,170.92c2.59,8.32-7.47,19.69-7.47,19.69l-13.93-5.69a141.76,141.76,0,0,1,5.7-14.15C362.65,161.57,371.51,162.52,374.11,170.92Z"/><rect class="cls-9" x="229.61" y="87.5" width="6" height="0.96"/><rect class="cls-9" x="305.31" y="133.36" width="16.12" height="0.96" transform="translate(165.57 440.87) rotate(-87.42)"/><polygon class="cls-9" points="311.39 91.84 200.63 91.84 190.32 322.48 301.08 322.48 311.39 91.84"/><polygon class="cls-15" points="308.08 95.01 197.32 95.01 187.01 325.65 297.77 325.65 308.08 95.01"/><polygon class="cls-16" points="304.77 98.17 194.02 98.17 183.71 328.81 294.46 328.81 304.77 98.17"/><polygon class="cls-7" points="292.17 198.76 197.63 198.76 196.84 216.41 291.38 216.41 292.17 198.76"/><polygon class="cls-9" points="249.63 185.89 198.21 185.89 197.85 193.79 249.27 193.79 249.63 185.89"/><polygon class="cls-7" points="290.04 246.39 195.5 246.39 194.71 264.04 289.25 264.04 290.04 246.39"/><polygon class="cls-17" points="272.7 287.87 209.13 287.87 208.18 309.02 271.75 309.02 272.7 287.87"/><path class="cls-7" d="M268.45,312.3H204.88a.11.11,0,0,1-.08,0,.09.09,0,0,1,0-.09l.94-21.15a.11.11,0,0,1,.11-.11h63.57l.09,0a.16.16,0,0,1,0,.09l-.95,21.15A.11.11,0,0,1,268.45,312.3ZM205,312.08h63.35l.94-20.94H205.93Z"/><polygon class="cls-9" points="238.52 233.52 196.08 233.52 195.72 241.42 238.16 241.42 238.52 233.52"/><path class="cls-7" d="M271.49,141.76a24.8,24.8,0,0,1-5.23,14.13,25.23,25.23,0,0,1-19.89,9.92,22.83,22.83,0,0,1-19-9.92,23.09,23.09,0,0,1-4-14.13,25.39,25.39,0,0,1,25.12-24A22.79,22.79,0,0,1,271.49,141.76Z"/><path class="cls-9" d="M273.75,122.75a6.55,6.55,0,0,1-1.39,3.75,6.7,6.7,0,0,1-5.29,2.64,6.08,6.08,0,0,1-6.1-6.39,6.75,6.75,0,0,1,6.68-6.39A6.06,6.06,0,0,1,273.75,122.75Z"/><path class="cls-12" d="M207.81,207.59a3,3,0,0,1-2.95,2.83,2.69,2.69,0,0,1-2.71-2.83,3,3,0,0,1,3-2.83A2.68,2.68,0,0,1,207.81,207.59Z"/><path class="cls-12" d="M220.47,207.59a3,3,0,0,1-2.95,2.83,2.69,2.69,0,0,1-2.71-2.83,3,3,0,0,1,3-2.83A2.68,2.68,0,0,1,220.47,207.59Z"/><path class="cls-12" d="M233.13,207.59a3,3,0,0,1-3,2.83,2.68,2.68,0,0,1-2.7-2.83,3,3,0,0,1,3-2.83A2.68,2.68,0,0,1,233.13,207.59Z"/><path class="cls-12" d="M205.68,255.22a3,3,0,0,1-3,2.83,2.69,2.69,0,0,1-2.71-2.83,3,3,0,0,1,3-2.83A2.68,2.68,0,0,1,205.68,255.22Z"/><path class="cls-12" d="M218.34,255.22a3,3,0,0,1-3,2.83,2.69,2.69,0,0,1-2.71-2.83,3,3,0,0,1,3-2.83A2.68,2.68,0,0,1,218.34,255.22Z"/><path class="cls-12" d="M231,255.22a3,3,0,0,1-2.95,2.83,2.69,2.69,0,0,1-2.71-2.83,3,3,0,0,1,3-2.83A2.68,2.68,0,0,1,231,255.22Z"/><path class="cls-12" d="M243.66,255.22a3,3,0,0,1-2.95,2.83,2.69,2.69,0,0,1-2.71-2.83,3,3,0,0,1,3-2.83A2.68,2.68,0,0,1,243.66,255.22Z"/><path class="cls-12" d="M256.32,255.22a3,3,0,0,1-3,2.83,2.68,2.68,0,0,1-2.7-2.83,3,3,0,0,1,3-2.83A2.68,2.68,0,0,1,256.32,255.22Z"/><ellipse class="cls-9" cx="247.81" cy="133.72" rx="9.95" ry="9.51" transform="translate(-22.87 211.35) rotate(-44.36)"/><path class="cls-9" d="M266.26,155.89a25.23,25.23,0,0,1-19.89,9.92,22.83,22.83,0,0,1-19-9.92c4.57-4.54,11.79-7.49,19.78-7.49S262.11,151.35,266.26,155.89Z"/><ellipse class="cls-18" cx="247.81" cy="133.72" rx="9.95" ry="9.51" transform="translate(-22.87 211.35) rotate(-44.36)"/><path class="cls-18" d="M266.26,155.89a25.23,25.23,0,0,1-19.89,9.92,22.83,22.83,0,0,1-19-9.92c4.57-4.54,11.79-7.49,19.78-7.49S262.11,151.35,266.26,155.89Z"/><path class="cls-8" d="M128.16,220.67c-.89,2-1.82,4.09-2.65,6.18s-1.65,4.23-2.37,6.37a81,81,0,0,0-3.36,13l-.21,1.38a2.12,2.12,0,0,0,.07.7,7.47,7.47,0,0,0,1,2.18,27.84,27.84,0,0,0,4.17,4.67,62.8,62.8,0,0,0,5.18,4.33c1.8,1.39,3.7,2.75,5.56,4l-1.75,3.29a66.64,66.64,0,0,1-12.65-7.22,30.05,30.05,0,0,1-5.67-5.33,13.33,13.33,0,0,1-2.24-4,8.81,8.81,0,0,1-.46-2.76c0-.23,0-.56,0-.72l0-.46.1-.93a73.14,73.14,0,0,1,3.06-14.4c.74-2.32,1.52-4.61,2.41-6.86s1.81-4.44,3-6.72Z"/><path class="cls-8" d="M134.27,262.9l6.63-3.37-1.71,7.29s-4.56,1.27-6.68-.94Z"/><polygon class="cls-8" points="146.97 260.73 145.21 266.75 139.19 266.82 140.9 259.53 146.97 260.73"/><path class="cls-14" d="M156.34,185.52a18.76,18.76,0,0,0,1.49,3.71,1.51,1.51,0,0,1-1.49.48Z"/><ellipse class="cls-12" cx="156.15" cy="184.5" rx="0.7" ry="1.08"/><path class="cls-12" d="M156,183.46l1.43-.41S156.67,184.16,156,183.46Z"/><path class="cls-8" d="M138,192.41c.85,4.37,1.71,12.37-1.35,15.29,0,0,1.19,4.43,9.31,4.43,8.93,0,4.27-4.43,4.27-4.43-4.87-1.16-4.75-4.78-3.9-8.17Z"/><path class="cls-8" d="M135.64,182.46c.44,7.3.48,10.4,4.16,14.14,5.54,5.63,14.41,3.49,16.15-3.79,1.56-6.56.57-17.39-6.57-20.29A10,10,0,0,0,135.64,182.46Z"/><path class="cls-12" d="M136.36,174.21c-3.66,1.33-8.54.34-6.63,11.63,2,12-1.09,15.89-1.09,15.89s13.88,3,28.06-.18c0,0-4.33-7.56-3.12-13.09,1.55-7,.33-9.64.33-9.64S141.5,172.33,136.36,174.21Z"/><path class="cls-8" d="M151.84,186.27a7.47,7.47,0,0,0,1.15,3.91c1,1.52,2.17.9,2.46-.68.26-1.42.07-3.92-1.2-4.9S151.86,184.61,151.84,186.27Z"/><path class="cls-12" d="M133.18,175.49c-1.06-3,4-7.5,14.56-5.61s11.07,10.71,11.07,10.71L156.67,178l.09,2.69-10.9,2.09Z"/><path class="cls-9" d="M134.08,208.2h0a1.64,1.64,0,0,1,1.36-1.9c3.3-.55,10.81-1.65,14.58-1.13,2.81.39,3.55,2,3.67,3.37a1.65,1.65,0,0,1-1.73,1.78l-16.32-.73A1.65,1.65,0,0,1,134.08,208.2Z"/><path class="cls-19" d="M134.08,208.2h0a1.64,1.64,0,0,1,1.36-1.9c3.3-.55,10.81-1.65,14.58-1.13,2.81.39,3.55,2,3.67,3.37a1.65,1.65,0,0,1-1.73,1.78l-16.32-.73A1.65,1.65,0,0,1,134.08,208.2Z"/><polygon class="cls-8" points="143.51 372.18 149.56 376.38 159.69 362.65 153.64 358.45 143.51 372.18"/><polygon class="cls-8" points="129.39 371.9 135.79 375.55 144.75 361.03 138.35 357.38 129.39 371.9"/><polygon class="cls-13" points="159.68 362.65 154.46 369.73 148.41 365.53 153.63 358.45 159.68 362.65"/><polygon class="cls-13" points="138.35 357.39 144.75 361.03 140.13 368.51 133.72 364.87 138.35 357.39"/><path class="cls-9" d="M148.61,254s23.64,29.79,19.2,58.27c-3.58,23-24.32,54.17-24.32,54.17l-9.75-4.85A318.1,318.1,0,0,0,151.29,319a31.52,31.52,0,0,0-3.78-27.32c-12-17.48-31.15-7.08-18.25-37.62Z"/><path class="cls-19" d="M148.61,254s23.64,29.79,19.2,58.27c-3.58,23-24.32,54.17-24.32,54.17l-9.75-4.85A318.1,318.1,0,0,0,151.29,319a31.52,31.52,0,0,0-3.78-27.32c-12-17.48-31.15-7.08-18.25-37.62Z"/><path class="cls-20" d="M160.21,273.17l-3.44-3.41c0,.27,6.66,41.35,8.53,52.89a70,70,0,0,0,2.52-10.35C170,298.36,165.42,284.09,160.21,273.17Z"/><path class="cls-9" d="M159.17,254s28.46,37.43,29.26,59.88c.67,18.81-31,55.14-31,55.14l-9.2-5.95s18.52-25.82,23.19-46.94c-1.78-20.9-39.94-62.13-39.94-62.13Z"/><path class="cls-19" d="M159.17,254s28.46,37.43,29.26,59.88c.67,18.81-31,55.14-31,55.14l-9.2-5.95s18.52-25.82,23.19-46.94c-1.78-20.9-39.94-62.13-39.94-62.13Z"/><path class="cls-9" d="M124,209.37c-3,.72-6,11.79-6,11.79l11.89,7.93s4-8.74,2.57-12.57C131,212.53,127.81,208.47,124,209.37Z"/><path class="cls-10" d="M126.29,216.49l-.83,9.64,4.42,3a39.76,39.76,0,0,0,2.69-8.57Z"/><path class="cls-9" d="M162.69,209.59s3.51,1.23-3.52,44.44H129.26c.5-12.17.52-19.68-5.3-44.66a88.61,88.61,0,0,1,12.7-1.67,96.06,96.06,0,0,1,13.58,0C156.07,208.23,162.69,209.59,162.69,209.59Z"/><path class="cls-8" d="M165.73,216.45c.67,1.87,1.39,3.9,2.14,5.84s1.46,4,2.22,5.91l2.3,5.89.59,1.48.29.73.14.37c0,.07,0,.06,0,.05a2.3,2.3,0,0,0-.66-.58,2.59,2.59,0,0,0-1.23-.36,2.4,2.4,0,0,0-1,.19c-.42.2-.43.29-.42.28a1.53,1.53,0,0,0,.21-.22,13.05,13.05,0,0,0,1.34-2.18c.44-.87.86-1.79,1.28-2.72.83-1.87,1.59-3.82,2.36-5.78s1.47-3.95,2.18-5.94l2.14-6,3.62.91c-.72,4.28-1.64,8.48-2.75,12.69-.54,2.11-1.16,4.2-1.87,6.32-.36,1-.75,2.11-1.21,3.18a19,19,0,0,1-1.78,3.4,8.1,8.1,0,0,1-.82,1,5.3,5.3,0,0,1-1.71,1.21,4.15,4.15,0,0,1-3.81-.26,4.89,4.89,0,0,1-1.7-1.77,5.48,5.48,0,0,1-.35-.66l-.18-.36-.36-.73L166,236.9c-.92-2-1.83-3.92-2.69-5.9s-1.69-4-2.49-6-1.53-4-2.21-6.21Z"/><path class="cls-9" d="M162.69,209.59c3.59.85,7.63,11.47,7.63,11.47l-10.68,9.11s-6.93-11.58-5.52-15.41S158,208.47,162.69,209.59Z"/><path class="cls-8" d="M181.26,210.1,185,207l2.6,4.06-1.92,3.4s-3.06,2.8-5.77,1.37h0A4.88,4.88,0,0,1,181.26,210.1Z"/><polygon class="cls-8" points="191.81 206.98 191.53 208 185.59 209 185.01 206.97 191.81 206.98"/><polygon class="cls-9" points="158.19 369.55 147.47 362.61 149.39 359.27 161.44 366.68 158.19 369.55"/><path class="cls-12" d="M140,375.06a6.4,6.4,0,0,1-2.65-.92.18.18,0,0,1-.09-.17.19.19,0,0,1,.12-.15c.29-.09,2.83-.87,3.55-.27a.6.6,0,0,1,.2.57,1,1,0,0,1-.52.81A1.33,1.33,0,0,1,140,375.06Zm-2.11-1c1.17.6,2.11.81,2.56.59a.66.66,0,0,0,.34-.55.25.25,0,0,0-.08-.25C140.29,373.5,138.88,373.75,137.85,374Z"/><path class="cls-12" d="M137.4,374.16a.19.19,0,0,1-.13-.05.18.18,0,0,1,0-.17c0-.09.61-2.13,1.57-2.59a.93.93,0,0,1,.78,0,.61.61,0,0,1,.43.62c-.07.85-1.79,2-2.57,2.21Zm1.82-2.56a.66.66,0,0,0-.27.06,4,4,0,0,0-1.28,2c.82-.35,2-1.27,2-1.78,0-.09,0-.2-.22-.28A.59.59,0,0,0,139.22,371.6Z"/><path class="cls-12" d="M153.37,379.11c-1.05,0-2.53-1.36-3.33-2.19a.17.17,0,0,1,0-.2.18.18,0,0,1,.18-.09c.37,0,3.64.48,4.1,1.41a.57.57,0,0,1,0,.55,1,1,0,0,1-.75.51Zm-2.72-2.06c1.19,1.15,2.23,1.79,2.82,1.71a.61.61,0,0,0,.48-.35.22.22,0,0,0,0-.22C153.72,377.69,152,377.26,150.65,377.05Z"/><path class="cls-12" d="M150.76,377a3.65,3.65,0,0,1-.63,0,.16.16,0,0,1-.13-.11.17.17,0,0,1,0-.17c.05-.07,1.32-1.6,2.52-1.7a1.25,1.25,0,0,1,1,.3c.37.32.35.6.26.78C153.47,376.69,151.85,377,150.76,377Zm-.25-.36c1.05.06,2.73-.29,3-.74,0,0,.07-.16-.17-.36a.92.92,0,0,0-.71-.23A4.08,4.08,0,0,0,150.51,376.66Z"/><path class="cls-9" d="M137.65,373.17l-8-2.25a.58.58,0,0,0-.7.33l-2.69,6a1.18,1.18,0,0,0,.78,1.58c2.79.74,4.17.95,7.68,1.94,2.15.61,5.23,1.72,8.21,2.56s4-2.05,2.8-2.67c-5.22-2.76-5.63-4.66-7.06-6.76A1.87,1.87,0,0,0,137.65,373.17Z"/><path class="cls-9" d="M150.25,375.82l-6.79-4.71a.58.58,0,0,0-.77.07L138.18,376a1.19,1.19,0,0,0,.22,1.75c2.4,1.61,3.64,2.26,6.63,4.33,1.84,1.28,5.51,4.11,8.05,5.88s4.41-.66,3.51-1.62c-4-4.31-4.92-7-5.58-9.46A2,2,0,0,0,150.25,375.82Z"/><polygon class="cls-9" points="144.74 367.09 132.49 361 133.76 357.68 146.84 364.09 144.74 367.09"/><path class="cls-9" d="M128.81,252.28l-1,2.67c-.11.21.14.42.48.42h31.06c.27,0,.49-.13.51-.3l.27-2.68c0-.18-.22-.34-.51-.34H129.3A.54.54,0,0,0,128.81,252.28Z"/><path class="cls-21" d="M128.81,252.28l-1,2.67c-.11.21.14.42.48.42h31.06c.27,0,.49-.13.51-.3l.27-2.68c0-.18-.22-.34-.51-.34H129.3A.54.54,0,0,0,128.81,252.28Z"/><path class="cls-9" d="M133.7,255.66h-.81c-.16,0-.29-.08-.28-.18L133,252c0-.1.16-.19.32-.19h.81c.16,0,.28.09.27.19l-.38,3.48C134,255.58,133.86,255.66,133.7,255.66Z"/><path class="cls-9" d="M152.85,255.66H152c-.16,0-.28-.08-.27-.18l.38-3.48c0-.1.15-.19.31-.19h.81c.16,0,.29.09.28.19l-.38,3.48C153.16,255.58,153,255.66,152.85,255.66Z"/><ellipse class="cls-22" cx="132.98" cy="412.81" rx="25.15" ry="1.83"/><path class="cls-3" d="M148.31,410.23c-4.45-1.29-9.35-3-12.38-4.72l-.26-.13V385.26h9a2.68,2.68,0,1,0,0-5.36h-9V288.08h-5.36V379.9h-8.94a2.68,2.68,0,1,0,0,5.36h8.94v20.12l-.25.13c-3,1.77-7.93,3.43-12.38,4.72a1.31,1.31,0,0,0,.37,2.57h29.89A1.31,1.31,0,0,0,148.31,410.23Z"/><rect class="cls-9" x="111.44" y="278.74" width="43.11" height="19.65" rx="5.18"/><path class="cls-9" d="M116,298.39v1.71c0,1.41,1.53,2.56,3.4,2.56h27.19c1.87,0,3.4-1.15,3.4-2.56v-1.71Z"/><path class="cls-23" d="M116,298.39v1.71c0,1.41,1.53,2.56,3.4,2.56h27.19c1.87,0,3.4-1.15,3.4-2.56v-1.71Z"/></g></g></svg>