<svg id="Layer_1" data-name="Layer 1" xmlns="http://www.w3.org/2000/svg" viewBox="0 0 83.73 83.73"><defs><style>.cls-1{fill:#4683c4;}</style></defs><path class="cls-1" d="M31.92,57.2a26.64,26.64,0,0,1-18.69,5.31c.7.47,1.07.76,1.47,1a36.29,36.29,0,0,0,30.74,2.56C59.77,61,69.37,46.85,69.32,31.42A2.91,2.91,0,0,1,70.46,29c1.75-1.57,3.34-3.31,5-5l-.27-.3-6,1.55-.14-.37a12.81,12.81,0,0,0,4.68-6.27c-2.25.81-4.43,1.57-6.58,2.39a2,2,0,0,1-2.32-.56A12.76,12.76,0,0,0,44,27a39.5,39.5,0,0,0-.55,6C33,32.26,24.29,27.75,17.23,19.59c-3.06,6.71-1.75,12.25,3.57,17l-.29.27-5.05-1.42c.38,6.34,3.69,10.33,9.46,12.75H20C22.14,53.69,26,56.5,31.92,57.2Z"/></svg>