<svg id="Layer_1" data-name="Layer 1" xmlns="http://www.w3.org/2000/svg" xmlns:xlink="http://www.w3.org/1999/xlink" viewBox="0 0 500 500"><defs><style>.cls-1{fill:url(#linear-gradient);}.cls-2{fill:url(#linear-gradient-2);}.cls-3{fill:#91b3fa;}.cls-4{fill:#bdd0fb;}.cls-5{fill:url(#linear-gradient-3);}.cls-6{fill:url(#linear-gradient-4);}.cls-16,.cls-7{fill:#fff;}.cls-8{fill:url(#linear-gradient-5);}.cls-9{fill:url(#linear-gradient-6);}.cls-10{fill:url(#linear-gradient-7);}.cls-11{fill:url(#linear-gradient-8);}.cls-12{fill:url(#linear-gradient-9);}.cls-13{fill:url(#linear-gradient-10);}.cls-14{fill:url(#linear-gradient-11);}.cls-15{fill:url(#linear-gradient-12);}.cls-16{opacity:0.78;}.cls-17{fill:url(#linear-gradient-13);}.cls-18{fill:url(#linear-gradient-14);}.cls-19{fill:url(#linear-gradient-15);}.cls-20{fill:url(#linear-gradient-16);}.cls-21{fill:url(#linear-gradient-17);}.cls-22{fill:url(#linear-gradient-18);}.cls-23{fill:url(#linear-gradient-19);}.cls-24{fill:url(#linear-gradient-20);}.cls-25{fill:url(#linear-gradient-21);}.cls-26{fill:url(#linear-gradient-22);}.cls-27{opacity:0.54;}.cls-28{fill:url(#linear-gradient-23);}.cls-29{fill:url(#linear-gradient-24);}.cls-30{fill:url(#linear-gradient-25);}.cls-31{fill:url(#linear-gradient-26);}.cls-32{fill:url(#linear-gradient-27);}.cls-33{fill:url(#linear-gradient-28);}.cls-34{fill:url(#linear-gradient-29);}.cls-35{fill:url(#linear-gradient-30);}.cls-36{fill:url(#linear-gradient-31);}.cls-37{fill:url(#linear-gradient-32);}.cls-38{fill:url(#linear-gradient-33);}.cls-39{fill:url(#linear-gradient-34);}.cls-40{fill:url(#linear-gradient-35);}.cls-41{fill:url(#linear-gradient-36);}.cls-42{fill:url(#linear-gradient-37);}.cls-43{fill:url(#linear-gradient-38);}.cls-44{fill:url(#linear-gradient-39);}.cls-45{fill:url(#linear-gradient-40);}.cls-46{fill:url(#linear-gradient-41);}.cls-47{fill:url(#linear-gradient-42);}.cls-48{fill:url(#linear-gradient-43);}.cls-49{fill:url(#linear-gradient-44);}.cls-50{fill:url(#linear-gradient-45);}.cls-51{fill:url(#linear-gradient-46);}.cls-52{fill:url(#linear-gradient-47);}.cls-53{fill:url(#linear-gradient-48);}.cls-54{fill:url(#linear-gradient-49);}.cls-55{fill:url(#linear-gradient-50);}.cls-56{fill:url(#linear-gradient-51);}.cls-57{fill:url(#linear-gradient-52);}.cls-58{fill:url(#linear-gradient-53);}.cls-59{fill:url(#linear-gradient-54);}.cls-60{fill:url(#linear-gradient-55);}.cls-61{fill:url(#linear-gradient-56);}.cls-62{fill:url(#linear-gradient-57);}.cls-63{fill:url(#linear-gradient-58);}.cls-64{fill:url(#linear-gradient-59);}.cls-65{fill:url(#linear-gradient-60);}.cls-66{fill:url(#linear-gradient-61);}.cls-67{fill:url(#linear-gradient-62);}.cls-68{fill:url(#linear-gradient-63);}.cls-69{fill:url(#linear-gradient-64);}.cls-70{fill:url(#linear-gradient-65);}.cls-71{fill:url(#linear-gradient-66);}.cls-72{fill:url(#linear-gradient-67);}</style><linearGradient id="linear-gradient" x1="493.7" y1="559.48" x2="143.49" y2="124.53" gradientUnits="userSpaceOnUse"><stop offset="0" stop-color="#dae3fe"/><stop offset="1" stop-color="#e9effd"/></linearGradient><linearGradient id="linear-gradient-2" x1="-5455.71" y1="386.97" x2="-5375.95" y2="147.67" gradientTransform="matrix(-1, 0, 0, 1, -5174.22, 0)" gradientUnits="userSpaceOnUse"><stop offset="0" stop-color="#09005d"/><stop offset="1" stop-color="#1a0f91"/></linearGradient><linearGradient id="linear-gradient-3" x1="254.7" y1="246.02" x2="249.02" y2="370.11" gradientTransform="translate(494.44 818.95) rotate(-180)" xlink:href="#linear-gradient-2"/><linearGradient id="linear-gradient-4" x1="431.29" y1="40.37" x2="275.14" y2="242.84" gradientUnits="userSpaceOnUse"><stop offset="0" stop-color="#4f52ff"/><stop offset="1" stop-color="#4042e2"/></linearGradient><linearGradient id="linear-gradient-5" x1="431.29" y1="40.37" x2="275.14" y2="242.84" gradientTransform="translate(391.62 -199.01) rotate(72.23)" xlink:href="#linear-gradient-4"/><linearGradient id="linear-gradient-6" x1="356.07" y1="112.16" x2="319.01" y2="200.17" gradientTransform="translate(426.91 -191.55) rotate(77.78)" xlink:href="#linear-gradient-4"/><linearGradient id="linear-gradient-7" x1="-4439.94" y1="3722.42" x2="-4462.16" y2="3812.69" gradientTransform="matrix(1, 0, 0, 1, 4844.69, -3686.77)" xlink:href="#linear-gradient-2"/><linearGradient id="linear-gradient-8" x1="-1822.54" y1="-952.8" x2="-1875.03" y2="-859.27" gradientTransform="translate(-5460.33 -344.69) rotate(-135)" gradientUnits="userSpaceOnUse"><stop offset="0" stop-color="#ff928e"/><stop offset="1" stop-color="#fe7062"/></linearGradient><linearGradient id="linear-gradient-9" x1="-1783.33" y1="-930.8" x2="-1835.82" y2="-837.26" xlink:href="#linear-gradient-8"/><linearGradient id="linear-gradient-10" x1="1608.31" y1="-1123.59" x2="1555.82" y2="-1030.05" gradientTransform="matrix(0.71, 0.71, 0.71, -0.71, -1474.24, 3641.4)" xlink:href="#linear-gradient-8"/><linearGradient id="linear-gradient-11" x1="195.91" y1="110.04" x2="221.31" y2="80.55" gradientTransform="translate(75.16 -104.68) rotate(31.72)" gradientUnits="userSpaceOnUse"><stop offset="0" stop-color="#e1473d"/><stop offset="1" stop-color="#e9605a"/></linearGradient><linearGradient id="linear-gradient-12" x1="235.67" y1="59.04" x2="160.54" y2="172.53" gradientTransform="matrix(1, 0, 0, 1, 0, 0)" xlink:href="#linear-gradient-8"/><linearGradient id="linear-gradient-13" x1="230.15" y1="38.06" x2="221.09" y2="87.69" gradientTransform="matrix(1, 0, 0, 1, 0, 0)" xlink:href="#linear-gradient-8"/><linearGradient id="linear-gradient-14" x1="178.38" y1="209.39" x2="203.79" y2="179.9" gradientTransform="translate(6.08 -6.7) rotate(1.91)" xlink:href="#linear-gradient-11"/><linearGradient id="linear-gradient-15" x1="218.15" y1="158.39" x2="143.02" y2="271.88" gradientTransform="translate(325.16 -64.18) rotate(75.13)" xlink:href="#linear-gradient-8"/><linearGradient id="linear-gradient-16" x1="217.29" y1="139.26" x2="200.58" y2="194.14" gradientTransform="matrix(1, 0, 0, 1, 0, 0)" xlink:href="#linear-gradient-8"/><linearGradient id="linear-gradient-17" x1="135.2" y1="171.97" x2="174.89" y2="125.9" gradientTransform="translate(280.75 -63.32) rotate(83.74)" xlink:href="#linear-gradient-11"/><linearGradient id="linear-gradient-18" x1="197.32" y1="92.3" x2="79.95" y2="269.61" gradientTransform="translate(273.15 -67.36) rotate(81.45)" xlink:href="#linear-gradient-8"/><linearGradient id="linear-gradient-19" x1="197.67" y1="62.1" x2="172.38" y2="138.93" gradientTransform="matrix(1, 0, 0, 1, 0, 0)" xlink:href="#linear-gradient-8"/><linearGradient id="linear-gradient-20" x1="208.42" y1="174.26" x2="238.51" y2="139.33" gradientTransform="translate(302.5 -130.4) rotate(73.15)" xlink:href="#linear-gradient-11"/><linearGradient id="linear-gradient-21" x1="255.51" y1="113.86" x2="166.53" y2="248.29" gradientTransform="translate(300.14 -130.95) rotate(72.65)" xlink:href="#linear-gradient-8"/><linearGradient id="linear-gradient-22" x1="254.19" y1="97.66" x2="233.19" y2="158.75" gradientTransform="matrix(1, 0, 0, 1, 0, 0)" xlink:href="#linear-gradient-8"/><linearGradient id="linear-gradient-23" x1="242.27" y1="234.43" x2="193.25" y2="246.75" gradientUnits="userSpaceOnUse"><stop offset="0" stop-color="#febbba"/><stop offset="1" stop-color="#ff928e"/></linearGradient><linearGradient id="linear-gradient-24" x1="310.32" y1="143.65" x2="241.12" y2="233.84" gradientTransform="matrix(1, 0, 0, 1, 0, 0)" xlink:href="#linear-gradient-8"/><linearGradient id="linear-gradient-25" x1="346.06" y1="171.07" x2="276.86" y2="261.26" gradientTransform="matrix(1, 0, 0, 1, 0, 0)" xlink:href="#linear-gradient-8"/><linearGradient id="linear-gradient-26" x1="-1012.64" y1="189.46" x2="-1019.73" y2="168.19" gradientTransform="translate(1290.1)" xlink:href="#linear-gradient-23"/><linearGradient id="linear-gradient-27" x1="263.67" y1="171.66" x2="289.15" y2="182.74" xlink:href="#linear-gradient-23"/><linearGradient id="linear-gradient-28" x1="836.52" y1="3336.13" x2="866.96" y2="3336.13" gradientTransform="matrix(-0.69, -0.73, -0.73, 0.69, 3284.48, -1490.58)" xlink:href="#linear-gradient-2"/><linearGradient id="linear-gradient-29" x1="262.08" y1="175.31" x2="287.57" y2="186.4" xlink:href="#linear-gradient-23"/><linearGradient id="linear-gradient-30" x1="-1888.31" y1="444.3" x2="-1856.63" y2="444.3" gradientTransform="matrix(-1, 0, 0, 1, -1576.24, 0)" xlink:href="#linear-gradient-2"/><linearGradient id="linear-gradient-31" x1="388.52" y1="414.66" x2="273.83" y2="447.35" xlink:href="#linear-gradient-4"/><linearGradient id="linear-gradient-32" x1="-1885.38" y1="429.42" x2="-1876.46" y2="429.42" gradientTransform="matrix(-1, 0, 0, 1, -1576.24, 0)" xlink:href="#linear-gradient-23"/><linearGradient id="linear-gradient-33" x1="-1951.46" y1="443.61" x2="-1939.32" y2="443.61" gradientTransform="matrix(-1, 0, 0, 1, -1576.24, 0)" xlink:href="#linear-gradient-2"/><linearGradient id="linear-gradient-34" x1="324.58" y1="408.02" x2="396.06" y2="454.56" xlink:href="#linear-gradient-4"/><linearGradient id="linear-gradient-35" x1="-1942.11" y1="421.98" x2="-1931.44" y2="421.98" gradientTransform="matrix(-1, 0, 0, 1, -1576.24, 0)" xlink:href="#linear-gradient-23"/><linearGradient id="linear-gradient-36" x1="-4276.61" y1="437.64" x2="-4113.9" y2="212.69" gradientTransform="matrix(-1, 0, 0, 1, -3909.24, 0)" xlink:href="#linear-gradient-2"/><linearGradient id="linear-gradient-37" x1="-2006.88" y1="1205.61" x2="-2007.87" y2="1114.25" gradientTransform="translate(2168.2 -1024.55) rotate(-7.3)" xlink:href="#linear-gradient-4"/><linearGradient id="linear-gradient-38" x1="-2023.15" y1="1077.44" x2="-2023.59" y2="1066.77" gradientTransform="translate(2168.2 -1024.55) rotate(-7.3)" xlink:href="#linear-gradient-4"/><linearGradient id="linear-gradient-39" x1="-2023.71" y1="1061.43" x2="-2021.51" y2="1091.99" gradientTransform="translate(2168.2 -1024.55) rotate(-7.3)" xlink:href="#linear-gradient-4"/><linearGradient id="linear-gradient-40" x1="-1993.44" y1="1076.21" x2="-1993.88" y2="1065.55" gradientTransform="translate(2168.2 -1024.55) rotate(-7.3)" xlink:href="#linear-gradient-4"/><linearGradient id="linear-gradient-41" x1="-1994.08" y1="1059.3" x2="-1991.88" y2="1089.86" gradientTransform="translate(2168.2 -1024.55) rotate(-7.3)" xlink:href="#linear-gradient-4"/><linearGradient id="linear-gradient-42" x1="-2006.28" y1="1044.42" x2="-2009.25" y2="1066.18" gradientTransform="translate(2168.2 -1024.55) rotate(-7.3)" xlink:href="#linear-gradient-4"/><linearGradient id="linear-gradient-43" x1="313.51" y1="324.77" x2="315.18" y2="288.98" xlink:href="#linear-gradient-4"/><linearGradient id="linear-gradient-44" x1="307.95" y1="321.98" x2="324.59" y2="321.98" gradientTransform="matrix(1, 0, 0, 1, 0, 0)" xlink:href="#linear-gradient-2"/><linearGradient id="linear-gradient-45" x1="310.03" y1="321.99" x2="322.69" y2="321.99" xlink:href="#linear-gradient-4"/><linearGradient id="linear-gradient-46" x1="323.94" y1="259.56" x2="299.79" y2="305.99" xlink:href="#linear-gradient-23"/><linearGradient id="linear-gradient-47" x1="358.79" y1="180.84" x2="289.6" y2="271.03" gradientTransform="matrix(1, 0, 0, 1, 0, 0)" xlink:href="#linear-gradient-8"/><linearGradient id="linear-gradient-48" x1="349.59" y1="171.79" x2="268.7" y2="291.33" gradientTransform="matrix(1, 0, 0, 1, 0, 0)" xlink:href="#linear-gradient-11"/><linearGradient id="linear-gradient-49" x1="-1192.58" y1="435.96" x2="-1171.8" y2="435.96" gradientTransform="translate(1290.1)" xlink:href="#linear-gradient-2"/><linearGradient id="linear-gradient-50" x1="-1140.56" y1="411.45" x2="-1216.16" y2="470.81" gradientTransform="translate(1290.1)" xlink:href="#linear-gradient-4"/><linearGradient id="linear-gradient-51" x1="-1186.8" y1="412.31" x2="-1190.77" y2="446.95" gradientTransform="translate(1290.1)" xlink:href="#linear-gradient-23"/><linearGradient id="linear-gradient-52" x1="-1127.13" y1="428.53" x2="-1202.73" y2="487.89" gradientTransform="translate(1290.1)" xlink:href="#linear-gradient-4"/><linearGradient id="linear-gradient-53" x1="-1160.94" y1="436.49" x2="-1131.03" y2="436.49" gradientTransform="translate(1290.1)" xlink:href="#linear-gradient-2"/><linearGradient id="linear-gradient-54" x1="-985.63" y1="491.48" x2="-989.6" y2="526.12" gradientTransform="translate(1087.83 -136.52) rotate(-3.61)" xlink:href="#linear-gradient-23"/><linearGradient id="linear-gradient-55" x1="118.79" y1="398.38" x2="96.83" y2="278.12" gradientTransform="matrix(1, 0, 0, 1, 0, 0)" xlink:href="#linear-gradient-2"/><linearGradient id="linear-gradient-56" x1="25.63" y1="332.82" x2="169.75" y2="203.97" xlink:href="#linear-gradient-4"/><linearGradient id="linear-gradient-57" x1="-1170.97" y1="210.41" x2="-1161.75" y2="185.23" gradientTransform="translate(1290.1)" xlink:href="#linear-gradient-23"/><linearGradient id="linear-gradient-58" x1="142.8" y1="199.17" x2="124.19" y2="160.52" xlink:href="#linear-gradient-23"/><linearGradient id="linear-gradient-59" x1="111.1" y1="148.14" x2="133.9" y2="174.83" gradientTransform="matrix(1, 0, 0, 1, 0, 0)" xlink:href="#linear-gradient-2"/><linearGradient id="linear-gradient-60" x1="134.22" y1="203.3" x2="115.61" y2="164.65" xlink:href="#linear-gradient-23"/><linearGradient id="linear-gradient-61" x1="259.84" y1="102.88" x2="184.68" y2="178.76" xlink:href="#linear-gradient-4"/><linearGradient id="linear-gradient-62" x1="171.61" y1="185.67" x2="163.5" y2="276.34" xlink:href="#linear-gradient-23"/><linearGradient id="linear-gradient-63" x1="223.18" y1="178.2" x2="203.34" y2="198.92" xlink:href="#linear-gradient-23"/><linearGradient id="linear-gradient-64" x1="201.21" y1="188.32" x2="193.1" y2="278.99" xlink:href="#linear-gradient-23"/><linearGradient id="linear-gradient-65" x1="175.36" y1="241.1" x2="95.67" y2="243.01" xlink:href="#linear-gradient-23"/><linearGradient id="linear-gradient-66" x1="335.86" y1="66.46" x2="196.51" y2="169.54" gradientTransform="matrix(1, 0, 0, 1, 0, 0)" xlink:href="#linear-gradient-2"/><linearGradient id="linear-gradient-67" x1="331.04" y1="59.94" x2="191.7" y2="163.02" gradientTransform="matrix(1, 0, 0, 1, 0, 0)" xlink:href="#linear-gradient-2"/></defs><path class="cls-1" d="M397.36,388a142.38,142.38,0,0,1-21.67,18.25C305,456.92,221.35,442.13,203.57,438.52c-26.25-5.33-77-15.64-113.67-58.78-55.51-65.27-46.86-168.1-3.81-236,7.87-12.42,49.47-81.33,134-92.38,51.17-6.69,110.81,6.8,154,43C464.77,170.32,458.32,323.77,397.36,388Z"/><path class="cls-2" d="M75.53,395.65a6.26,6.26,0,0,0,6.24,6.24H419.51a6.27,6.27,0,0,0,6.25-6.24l2.81-194.09c0-3.43-4.05-10.13-11.46-9.63L87,183.39a15.74,15.74,0,0,0-16.15,16.1Z"/><path class="cls-3" d="M81.69,389.66a5.93,5.93,0,0,0,5.91,5.91H411.37a5.93,5.93,0,0,0,5.9-5.91l2.66-176.19c-.32-10.6-9.61-14.42-15.25-14.19L88.34,190.79A11.07,11.07,0,0,0,77,202.11Z"/><path class="cls-4" d="M413.78,306h0a.86.86,0,0,1-.85-.88l.21-14.29a.86.86,0,0,1,.86-.85h0a.86.86,0,0,1,.85.88l-.21,14.29A.86.86,0,0,1,413.78,306Z"/><path class="cls-4" d="M414.29,270.94h0a.87.87,0,0,1-.86-.88l.81-54.72a10.28,10.28,0,0,0-2.94-7.7c-3.6-3.45-9.32-3.28-9.57-3.27l-101.11-2.71a.86.86,0,0,1-.84-.89.83.83,0,0,1,.89-.84l101,2.71c.63,0,6.72-.14,10.78,3.75a12,12,0,0,1,3.47,9l-.81,54.75A.86.86,0,0,1,414.29,270.94Z"/><rect class="cls-5" x="48.13" y="400.95" width="398.18" height="17.05" rx="5.65" transform="translate(494.44 818.95) rotate(180)"/><circle class="cls-4" cx="332.19" cy="168.87" r="72.87" transform="translate(-22.11 284.35) rotate(-45)"/><circle class="cls-6" cx="332.19" cy="168.87" r="62.19"/><path class="cls-7" d="M332.19,234.17a65.31,65.31,0,1,1,65.31-65.3A65.37,65.37,0,0,1,332.19,234.17Zm0-127.49a62.19,62.19,0,1,0,62.19,62.19A62.26,62.26,0,0,0,332.19,106.68Z"/><circle class="cls-8" cx="332.19" cy="168.87" r="37.91" transform="translate(70 433.68) rotate(-72.23)"/><path class="cls-7" d="M332.19,209.9a41,41,0,1,1,41-41A41.08,41.08,0,0,1,332.19,209.9Zm0-75.83a34.8,34.8,0,1,0,34.8,34.8A34.84,34.84,0,0,0,332.19,134.07Z"/><circle class="cls-9" cx="332.19" cy="168.87" r="14.69" transform="translate(96.83 457.78) rotate(-77.78)"/><path class="cls-7" d="M332.19,186.67A17.81,17.81,0,1,1,350,168.87,17.82,17.82,0,0,1,332.19,186.67Zm0-29.38a11.58,11.58,0,1,0,11.58,11.58A11.58,11.58,0,0,0,332.19,157.29Z"/><rect class="cls-10" x="382.94" y="65.88" width="2.78" height="105.17" transform="translate(572.33 473.99) rotate(-135)"/><path class="cls-11" d="M347.55,149.93c1.13-1.13,6.44,4.18,5.31,5.31l-19.7,15.49a.78.78,0,0,1-1.09-1.1Z"/><path class="cls-12" d="M422.45,82.31l10,1L418.72,97a21.23,21.23,0,0,1-17.11,6.12h0Z"/><path class="cls-13" d="M420.49,80.34l-1-10L405.76,84.07a21.24,21.24,0,0,0-6.12,17.12h0Z"/><circle class="cls-14" cx="221.82" cy="79.95" r="18.94" transform="translate(-8.9 128.56) rotate(-31.72)"/><circle class="cls-15" cx="221.82" cy="79.95" r="18.31"/><path class="cls-16" d="M206.72,73.11a.71.71,0,0,1-.34-.08.77.77,0,0,1-.34-1,17.59,17.59,0,0,1,15.78-9.72,17.77,17.77,0,0,1,3.19.29.76.76,0,0,1,.62.89.77.77,0,0,1-.89.62,16.77,16.77,0,0,0-2.92-.26,16.08,16.08,0,0,0-14.41,8.87A.75.75,0,0,1,206.72,73.11Z"/><circle class="cls-16" cx="222.22" cy="80.35" r="15.5" transform="translate(92.97 278.17) rotate(-76.72)"/><path class="cls-17" d="M220.7,91.87V90.19a14,14,0,0,1-4.73-1,1,1,0,0,1-.54-1.15l.43-1.57a1,1,0,0,1,1.34-.65,11.24,11.24,0,0,0,4.36.92c1.7,0,3-.57,3-1.75s-1-1.69-3.33-2.32c-3.36-.92-5.77-2.38-5.77-5.34,0-2.67,2-4.7,5.34-5.25V70.36a1,1,0,0,1,1-1h1a1,1,0,0,1,1,1v1.52a12.44,12.44,0,0,1,3.75.67,1,1,0,0,1,.61,1.18l-.4,1.45a1,1,0,0,1-1.29.67,10.19,10.19,0,0,0-3.68-.67c-2,0-2.58.83-2.58,1.58,0,.91,1.2,1.55,3.82,2.35,3.73,1.12,5.28,2.67,5.28,5.45,0,2.55-1.9,4.85-5.57,5.42v1.89a1,1,0,0,1-1,1h-1A1,1,0,0,1,220.7,91.87Z"/><circle class="cls-18" cx="204.3" cy="179.3" r="18.94" transform="translate(-5.85 6.9) rotate(-1.91)"/><circle class="cls-19" cx="204.3" cy="179.3" r="18.31" transform="translate(-21.43 330.74) rotate(-75.13)"/><path class="cls-16" d="M189.2,172.46a.71.71,0,0,1-.34-.08.77.77,0,0,1-.34-1,17.58,17.58,0,0,1,15.78-9.72,17.85,17.85,0,0,1,3.19.29.76.76,0,0,1,.62.89.77.77,0,0,1-.9.62,16.57,16.57,0,0,0-2.91-.26A16.07,16.07,0,0,0,189.89,172,.76.76,0,0,1,189.2,172.46Z"/><circle class="cls-16" cx="204.7" cy="179.7" r="15.5" transform="translate(-28.9 319.8) rotate(-72.23)"/><path class="cls-20" d="M203.18,191.22v-1.68a13.71,13.71,0,0,1-4.73-1,1,1,0,0,1-.54-1.15l.43-1.57a1,1,0,0,1,1.33-.65,11.33,11.33,0,0,0,4.37.92c1.7,0,3-.57,3-1.75s-1-1.69-3.33-2.32c-3.36-.92-5.77-2.38-5.77-5.34,0-2.67,1.95-4.7,5.34-5.25v-1.69a1,1,0,0,1,1-1h1a1,1,0,0,1,1,1v1.52a12.38,12.38,0,0,1,3.75.67,1,1,0,0,1,.62,1.18l-.4,1.45a1,1,0,0,1-1.29.67,10.19,10.19,0,0,0-3.68-.67c-2,0-2.58.83-2.58,1.58,0,.91,1.2,1.55,3.81,2.35,3.73,1.12,5.28,2.67,5.28,5.45,0,2.56-1.89,4.85-5.56,5.43v1.88a1,1,0,0,1-1,1h-1A1,1,0,0,1,203.18,191.22Z"/><circle class="cls-21" cx="175.7" cy="124.97" r="29.59" transform="translate(32.3 285.98) rotate(-83.74)"/><circle class="cls-22" cx="175.7" cy="124.97" r="28.61" transform="translate(25.99 280.13) rotate(-81.45)"/><path class="cls-16" d="M152.11,113.77a.67.67,0,0,1-.31-.07.7.7,0,0,1-.31-.93,27,27,0,0,1,24.21-14.9,27.42,27.42,0,0,1,4.88.44.69.69,0,1,1-.24,1.36,25.75,25.75,0,0,0-27.62,13.73A.67.67,0,0,1,152.11,113.77Z"/><circle class="cls-16" cx="176.32" cy="125.59" r="24.21" transform="translate(-7.19 240.43) rotate(-67.5)"/><path class="cls-23" d="M173.94,143.59V141a21.38,21.38,0,0,1-7.39-1.61,1.52,1.52,0,0,1-.84-1.8l.67-2.45a1.52,1.52,0,0,1,2.08-1,17.92,17.92,0,0,0,6.83,1.43c2.64,0,4.62-.89,4.62-2.73,0-1.66-1.53-2.65-5.2-3.63-5.25-1.44-9-3.72-9-8.34,0-4.17,3.05-7.35,8.34-8.21V110a1.53,1.53,0,0,1,1.54-1.53h1.55a1.53,1.53,0,0,1,1.53,1.53v2.37a19.44,19.44,0,0,1,5.86,1,1.52,1.52,0,0,1,1,1.84l-.61,2.27a1.53,1.53,0,0,1-2,1,16,16,0,0,0-5.75-1c-3.14,0-4,1.3-4,2.47,0,1.43,1.88,2.42,6,3.67,5.83,1.75,8.25,4.17,8.25,8.52,0,4-3,7.58-8.7,8.47v3a1.54,1.54,0,0,1-1.53,1.54h-1.55A1.54,1.54,0,0,1,173.94,143.59Z"/><circle class="cls-24" cx="239.12" cy="138.63" r="22.44" transform="translate(37.15 327.31) rotate(-73.15)"/><circle class="cls-25" cx="239.12" cy="138.63" r="21.69" transform="matrix(0.3, -0.95, 0.95, 0.3, 35.5, 325.53)"/><path class="cls-16" d="M221.23,130.31a.69.69,0,0,1-.62-1,20.64,20.64,0,0,1,18.51-11.4,21.12,21.12,0,0,1,3.73.34.69.69,0,1,1-.24,1.36,20.4,20.4,0,0,0-3.49-.31,19.25,19.25,0,0,0-17.27,10.63A.69.69,0,0,1,221.23,130.31Z"/><circle class="cls-16" cx="239.59" cy="139.1" r="18.36" transform="translate(-12.54 24.29) rotate(-5.65)"/><path class="cls-26" d="M237.79,152.75v-2a16.3,16.3,0,0,1-5.61-1.21,1.16,1.16,0,0,1-.63-1.37l.5-1.86a1.16,1.16,0,0,1,1.58-.76,13.56,13.56,0,0,0,5.18,1.09c2,0,3.5-.68,3.5-2.08,0-1.25-1.16-2-3.94-2.75-4-1.09-6.84-2.82-6.84-6.32,0-3.16,2.32-5.57,6.33-6.22v-2a1.16,1.16,0,0,1,1.16-1.16h1.17a1.16,1.16,0,0,1,1.17,1.16v1.8a14.7,14.7,0,0,1,4.44.79,1.16,1.16,0,0,1,.72,1.4l-.46,1.72a1.16,1.16,0,0,1-1.54.78,12.24,12.24,0,0,0-4.35-.79c-2.38,0-3.06,1-3.06,1.87,0,1.09,1.43,1.84,4.52,2.79,4.42,1.33,6.25,3.16,6.25,6.46,0,3-2.24,5.74-6.59,6.42v2.24a1.16,1.16,0,0,1-1.16,1.16H239A1.16,1.16,0,0,1,237.79,152.75Z"/><g class="cls-27"><rect class="cls-7" x="391.45" y="319.41" width="15.97" height="72.3" transform="translate(798.87 711.12) rotate(180)"/><rect class="cls-7" x="364.76" y="344.26" width="15.97" height="47.45" transform="translate(745.49 735.97) rotate(180)"/><rect class="cls-7" x="338.07" y="282.85" width="15.97" height="108.86" transform="translate(692.11 674.56) rotate(180)"/><rect class="cls-7" x="311.38" y="365.56" width="15.97" height="26.15" transform="translate(638.73 757.27) rotate(180)"/><rect class="cls-7" x="284.69" y="297.4" width="15.97" height="94.3" transform="translate(585.35 689.11) rotate(180)"/><rect class="cls-7" x="258" y="313.73" width="15.97" height="77.98" transform="translate(531.97 705.44) rotate(180)"/><rect class="cls-7" x="231.31" y="331.48" width="15.97" height="60.23" transform="translate(478.59 723.19) rotate(180)"/><rect class="cls-7" x="204.62" y="260.84" width="15.97" height="130.87" transform="translate(425.21 652.55) rotate(180)"/><rect class="cls-7" x="177.93" y="274.69" width="15.97" height="117.02" transform="translate(371.84 666.4) rotate(180)"/><rect class="cls-7" x="151.24" y="295.63" width="15.97" height="96.08" transform="translate(318.46 687.34) rotate(180)"/><rect class="cls-7" x="124.55" y="367.98" width="15.97" height="23.72" transform="translate(265.08 759.69) rotate(180)"/><rect class="cls-7" x="97.86" y="321.9" width="15.97" height="69.81" transform="translate(211.7 713.61) rotate(180)"/></g><path class="cls-28" d="M196.16,243.43s-2.29-6-5-5.48a18.21,18.21,0,0,0-5.6,2.6l-4.31,5.82s12.08,4.76,16.32,2a93,93,0,0,0,27.91-.42,60.84,60.84,0,0,1-4.39-13.23C213.23,239.22,204.74,242.55,196.16,243.43Z"/><path class="cls-29" d="M261.48,199.67s-17.66,22.23-40.36,35.08A60.84,60.84,0,0,0,225.51,248c11.77-1.94,25.41-6.55,37-16.8Z"/><path class="cls-30" d="M283.5,298.23c-3.46-16.4-6.91-25.9-18.47-57-3.64-9.78-6.94-19.68-5.34-30l1.79-11.58s22.47-7.61,47.37-.32c0,0,34,14.76,10.9,87.65C309.35,298.64,297.17,302,283.5,298.23Z"/><path class="cls-31" d="M265.3,184.88l5.83,14a2.78,2.78,0,0,0,2.11,1.67c3.36.58,11.48,1.48,16.81-2a1.36,1.36,0,0,0,.37-1.91l-10.77-15.45Z"/><path class="cls-32" d="M271.33,163.47c-.25.23-10.33,20-10.33,20L272.43,189l12.34-17.34S275.43,159.61,271.33,163.47Z"/><path class="cls-33" d="M279.58,173.75l-5.7,9.5a2.31,2.31,0,0,1-.31.39c-.68.63-3,2.46-4.8,0-1.53-2.13-3-4.06-4.5-4.86a1.82,1.82,0,0,0-2.46.81,68.61,68.61,0,0,0-3.9,9.25A1.81,1.81,0,0,0,259,191a50.44,50.44,0,0,0,10.94,3.19,1.8,1.8,0,0,0,1.73-.73c1.74-2.39,6.66-9.07,8.34-10.75s4.44-1,5.74-.59a1.87,1.87,0,0,0,1.46-.19c1.31-.8,3.61-2.77,1.51-6.11a1.83,1.83,0,0,1,.56-2.48c1.47-1,3.07-2.78,1.55-5.72a5.7,5.7,0,0,0-6.16-3,1.87,1.87,0,0,1-2-1.1,1.23,1.23,0,0,0-1-.74,1.77,1.77,0,0,1-1.43-2.08,4.68,4.68,0,0,0-2.6-5.35c-4.93-2.71-9.25,1.71-10.35,5.44s4.41,6.36,7.88,6.8c2.55.32,3.94,3.1,4.51,4.56A1.84,1.84,0,0,1,279.58,173.75Z"/><path class="cls-34" d="M277.58,185.58s2.45-5.77,5.26-5.54,5,3,1.54,6.18C280.05,190.13,277.58,185.58,277.58,185.58Z"/><path class="cls-35" d="M281.29,442.76c5.42.47,14.84,1.23,22.26,1.56,4.47.2,7-.24,8.52-.83,0,.17,0,.32,0,.47a1.53,1.53,0,0,1-1.46,1.45,262,262,0,0,1-29.15,0,1.09,1.09,0,0,1-.9-1.64A10.06,10.06,0,0,1,281.29,442.76Z"/><path class="cls-36" d="M303.55,444.32c-7.42-.33-16.84-1.09-22.26-1.56,5.33-6.54,22.26-10.95,22.26-10.95h4.79a20.08,20.08,0,0,1,3.73,11.68C310.59,444.08,308,444.52,303.55,444.32Z"/><path class="cls-37" d="M309.14,424l-.45,8.86a2,2,0,0,1-1.72,1.9,8,8,0,0,1-3.59-.3,2.38,2.38,0,0,1-1.61-1.84L300.22,424Z"/><path class="cls-38" d="M371.26,444.26a4.33,4.33,0,0,0,3.87-2.86v0a3.05,3.05,0,0,1-2.06,3.49,13.43,13.43,0,0,1-5.7.89,5.65,5.65,0,0,1-4.28-2v0C364.85,444.7,367.34,444.8,371.26,444.26Z"/><path class="cls-39" d="M360.17,423.94h3.94c6-.12,9.78,12.55,11,17.46a4.33,4.33,0,0,1-3.87,2.86c-3.92.54-6.41.44-8.18-.44-3.25-4.27-4.86-10.52-5.63-14.18A5,5,0,0,1,360.17,423.94Z"/><path class="cls-40" d="M363.6,415.72l2.19,8.71a2.36,2.36,0,0,1-1.23,2.68,8.38,8.38,0,0,1-4.53,1.1,2,2,0,0,1-1.61-1.32l-3.22-9.16Z"/><path class="cls-41" d="M366.22,418.24c-2.73,2.42-11.59,2.74-11.59,2.74-31.93-76.63-45.24-97.72-45.24-97.72,4.61,28.92,1,103.16,1,103.16-5.27,2.32-12.06,0-12.06,0-.43-47.35-7.1-98.23-15.7-130.78,21.58-.49,33.31-5.19,37.06-8.16C337.67,316.48,366.22,418.24,366.22,418.24Z"/><path class="cls-42" d="M277.2,317.05l4,24.69a8.13,8.13,0,0,0,9,6.77l59.43-7.25a5.88,5.88,0,0,0,5.17-5.7c.12-6.38-.13-17.74-2.81-28.08Z"/><path class="cls-7" d="M290.69,347a.16.16,0,0,1-.16-.16.17.17,0,0,1,.16-.17,5.19,5.19,0,0,0,.68-.05l.61-.07a.15.15,0,0,1,.18.14.16.16,0,0,1-.14.18l-.61.08-.71.05Zm4.34-.5a.16.16,0,0,1-.16-.14.16.16,0,0,1,.14-.18l1.31-.16a.15.15,0,0,1,.18.14.16.16,0,0,1-.14.18l-1.31.16Zm-7.34,0h-.05a7.9,7.9,0,0,1-1.21-.58.16.16,0,0,1-.06-.22.18.18,0,0,1,.23-.06,7.13,7.13,0,0,0,1.15.55.17.17,0,0,1,.1.22A.18.18,0,0,1,287.69,346.47Zm11.68-.53a.16.16,0,0,1-.16-.14.16.16,0,0,1,.14-.18l1.3-.16a.16.16,0,0,1,.19.14.17.17,0,0,1-.14.18l-1.31.16Zm4.34-.53a.16.16,0,0,1-.16-.14.16.16,0,0,1,.14-.18l1.3-.16a.16.16,0,0,1,.19.14.17.17,0,0,1-.15.18l-1.3.16Zm4.34-.52a.17.17,0,0,1-.16-.15.16.16,0,0,1,.14-.18l1.3-.16a.17.17,0,0,1,.19.14.18.18,0,0,1-.15.19l-1.3.15Zm4.34-.53a.17.17,0,0,1-.16-.15.16.16,0,0,1,.14-.18l1.3-.16a.15.15,0,0,1,.18.14.17.17,0,0,1-.14.19l-1.3.15Zm-28.15-.48a.19.19,0,0,1-.13-.06,10.19,10.19,0,0,1-.71-1.13.18.18,0,0,1,.07-.23.16.16,0,0,1,.22.08,8.22,8.22,0,0,0,.69,1.08.16.16,0,0,1,0,.23A.17.17,0,0,1,284.24,343.88Zm32.49-.05a.16.16,0,0,1-.16-.15.15.15,0,0,1,.14-.18l1.3-.16a.15.15,0,0,1,.18.14.17.17,0,0,1-.14.19l-1.3.16Zm4.34-.53a.17.17,0,0,1-.17-.15.17.17,0,0,1,.15-.18l1.3-.16a.16.16,0,0,1,.18.14.17.17,0,0,1-.14.19l-1.3.16Zm4.34-.53a.16.16,0,0,1-.17-.15.17.17,0,0,1,.15-.18l1.3-.16a.16.16,0,0,1,.18.15.16.16,0,0,1-.14.18l-1.3.16Zm4.33-.53a.16.16,0,0,1-.16-.15.17.17,0,0,1,.14-.18l1.31-.16a.17.17,0,0,1,.18.15.16.16,0,0,1-.14.18l-1.31.16Zm4.34-.53a.16.16,0,0,1-.16-.14.17.17,0,0,1,.14-.19l1.31-.16a.17.17,0,0,1,0,.33l-1.31.16Zm4.34-.53a.16.16,0,0,1-.16-.14.17.17,0,0,1,.14-.19l1.3-.15a.16.16,0,0,1,.19.14.17.17,0,0,1-.15.18l-1.3.16Zm4.34-.53a.16.16,0,0,1-.16-.14.18.18,0,0,1,.14-.19l1.3-.15a.16.16,0,0,1,.19.14.17.17,0,0,1-.15.18l-1.3.16Zm4.34-.53a.16.16,0,0,1-.16-.14.16.16,0,0,1,.14-.18l.85-.11.44-.07a.16.16,0,1,1,.06.32L348,340l-.85.1Zm-64.4-.27a.16.16,0,0,1-.16-.14l-.21-1.29a.16.16,0,0,1,.13-.19.16.16,0,0,1,.19.14l.21,1.29a.17.17,0,0,1-.14.19Zm68.39-1.29a.13.13,0,0,1-.12-.05.16.16,0,0,1,0-.23,5.52,5.52,0,0,0,.83-1,.17.17,0,0,1,.23,0,.16.16,0,0,1,0,.22,5.72,5.72,0,0,1-.87,1A.15.15,0,0,1,351.09,338.56Zm-69.09-3a.16.16,0,0,1-.16-.14l-.21-1.3a.17.17,0,0,1,.33-.05l.21,1.3a.16.16,0,0,1-.14.18Zm70.86-.85h0a.17.17,0,0,1-.16-.17v-.09c0-.39,0-.79,0-1.21a.16.16,0,0,1,.16-.16h0a.16.16,0,0,1,.16.16c0,.42,0,.83,0,1.22v.1A.16.16,0,0,1,352.86,334.69Zm-71.55-3.47a.16.16,0,0,1-.16-.14l-.21-1.29a.18.18,0,0,1,.14-.19.15.15,0,0,1,.18.14l.21,1.29a.16.16,0,0,1-.13.19Zm71.57-.9a.16.16,0,0,1-.16-.16c0-.42,0-.86,0-1.31a.17.17,0,0,1,.16-.17h0a.17.17,0,0,1,.17.16c0,.45,0,.89,0,1.32a.16.16,0,0,1-.16.16Zm-72.26-3.41a.18.18,0,0,1-.17-.14l-.2-1.3a.15.15,0,0,1,.13-.18.16.16,0,0,1,.19.13l.21,1.3a.16.16,0,0,1-.14.18Zm72.12-1a.16.16,0,0,1-.16-.15c0-.43-.05-.87-.07-1.31a.15.15,0,0,1,.15-.17.17.17,0,0,1,.18.15c0,.44.05.88.07,1.31a.17.17,0,0,1-.16.17Zm-72.82-3.36a.16.16,0,0,1-.16-.14l-.21-1.29a.17.17,0,0,1,.14-.19.17.17,0,0,1,.19.14l.2,1.29a.16.16,0,0,1-.13.19Zm72.53-1a.16.16,0,0,1-.17-.15c0-.43-.07-.87-.12-1.3a.17.17,0,0,1,.15-.18.15.15,0,0,1,.18.14l.12,1.31a.17.17,0,0,1-.15.18Zm-73.22-3.32a.15.15,0,0,1-.16-.13l-.21-1.3a.16.16,0,1,1,.32,0l.21,1.29a.16.16,0,0,1-.13.19Zm72.75-1a.18.18,0,0,1-.17-.14c-.05-.43-.11-.86-.17-1.29a.16.16,0,0,1,.13-.19.16.16,0,0,1,.19.14l.18,1.3a.16.16,0,0,1-.14.18Zm-71.65-.43a.16.16,0,0,1-.17-.14.17.17,0,0,1,.15-.18l1.3-.17a.15.15,0,0,1,.18.14.18.18,0,0,1-.14.19l-1.3.16Zm4.33-.55a.16.16,0,0,1-.16-.15.16.16,0,0,1,.14-.18l1.3-.17a.17.17,0,0,1,.19.15.17.17,0,0,1-.15.18l-1.3.17Zm4.34-.56a.16.16,0,0,1-.16-.14.15.15,0,0,1,.14-.18l1.3-.17a.15.15,0,0,1,.18.14.18.18,0,0,1-.14.19l-1.3.16Zm4.33-.55a.16.16,0,0,1-.16-.14.17.17,0,0,1,.14-.19l1.3-.16a.15.15,0,0,1,.19.14.17.17,0,0,1-.14.18l-1.31.17Zm4.34-.56a.16.16,0,0,1-.16-.14.15.15,0,0,1,.14-.18l1.3-.17a.15.15,0,0,1,.18.14.18.18,0,0,1-.14.19l-1.3.16ZM302,314a.16.16,0,0,1-.17-.14.17.17,0,0,1,.14-.19l1.3-.16a.16.16,0,0,1,.19.14.16.16,0,0,1-.14.18L302,314Zm4.33-.56a.16.16,0,0,1-.16-.14.16.16,0,0,1,.14-.18l1.3-.17a.15.15,0,0,1,.18.14.17.17,0,0,1-.14.19l-1.3.16Zm4.34-.55a.16.16,0,0,1-.17-.14.18.18,0,0,1,.15-.19l1.3-.16a.15.15,0,0,1,.18.14.16.16,0,0,1-.14.18l-1.3.17Zm40.63,0a.18.18,0,0,1-.17-.14c-.07-.43-.16-.86-.24-1.28a.17.17,0,0,1,.13-.2.16.16,0,0,1,.19.13c.09.43.17.86.25,1.29a.17.17,0,0,1-.13.19Zm-36.3-.56a.16.16,0,0,1-.16-.14.16.16,0,0,1,.14-.18l1.3-.17a.15.15,0,0,1,.18.14.17.17,0,0,1-.14.19l-1.3.16Zm4.34-.55a.18.18,0,0,1-.17-.14.18.18,0,0,1,.15-.19l1.3-.16a.15.15,0,0,1,.18.14.16.16,0,0,1-.14.18l-1.3.17Zm4.33-.56a.16.16,0,0,1-.16-.14.16.16,0,0,1,.14-.18l1.3-.17a.16.16,0,0,1,.19.14.18.18,0,0,1-.15.19l-1.3.16Zm4.34-.55a.16.16,0,0,1-.16-.14.17.17,0,0,1,.14-.19l1.3-.16a.15.15,0,0,1,.18.14.16.16,0,0,1-.14.18l-1.3.17Zm4.33-.55a.17.17,0,0,1-.16-.15.16.16,0,0,1,.14-.18l1.3-.17a.16.16,0,0,1,.19.14.17.17,0,0,1-.14.19l-1.3.16Zm4.34-.56a.16.16,0,0,1-.16-.14.18.18,0,0,1,.14-.19l1.3-.16a.15.15,0,0,1,.18.14.16.16,0,0,1-.14.18l-1.3.17Zm4.34-.55a.16.16,0,0,1-.17-.15.17.17,0,0,1,.14-.18l1.31-.17a.17.17,0,0,1,.18.14.17.17,0,0,1-.14.19l-1.3.16Zm9.37-.4a.16.16,0,0,1-.16-.12c-.05-.22-.11-.43-.16-.64l-.36,0a.16.16,0,1,1,0-.32l.64-.08,0,.14c.07.26.13.52.2.78a.18.18,0,0,1-.12.2Zm-5-.16a.16.16,0,0,1-.16-.14.18.18,0,0,1,.14-.19l1.3-.16a.15.15,0,0,1,.18.14.15.15,0,0,1-.14.18l-1.3.17Z"/><path class="cls-43" d="M292.3,296.82l-.07-1.93a1.49,1.49,0,0,1,1-1c1.81-.53,6.33-1.63,8.75-.26l.62,2.18Z"/><path class="cls-44" d="M297.84,294.24a2.65,2.65,0,0,1-1.28.16,1.15,1.15,0,0,1-1-1l-.77-6,3.05-.39.76,6A1.17,1.17,0,0,1,297.84,294.24Z"/><path class="cls-45" d="M321.81,293l-.06-1.93a1.48,1.48,0,0,1,1-1c1.82-.53,6.34-1.64,8.76-.27l.61,2.18Z"/><path class="cls-46" d="M327.36,290.46a2.66,2.66,0,0,1-1.28.17,1.17,1.17,0,0,1-1-1l-.84-6.62,3-.39.85,6.61A1.16,1.16,0,0,1,327.36,290.46Z"/><path class="cls-47" d="M294.65,288.92l32.63-5.28a1.6,1.6,0,0,0,1.35-1.49,13.72,13.72,0,0,0-.43-4.17,3.81,3.81,0,0,0-4.08-2.73c-6.13.64-21.69,2.63-29.84,7.12a3,3,0,0,0-1.54,2.31,7.16,7.16,0,0,0,.35,3.34A1.43,1.43,0,0,0,294.65,288.92Z"/><path class="cls-3" d="M293.84,287.58a.43.43,0,0,1-.42-.34,8.27,8.27,0,0,1-.13-2.6,3.07,3.07,0,0,1,1.79-2.36,36.84,36.84,0,0,1,8.05-2.59.43.43,0,1,1,.13.86,36.71,36.71,0,0,0-7.83,2.53,2.17,2.17,0,0,0-1.27,1.68,7.47,7.47,0,0,0,.11,2.28.44.44,0,0,1-.33.53Z"/><path class="cls-48" d="M277,298c10.57-1.49,56.31-7.83,69.82-7.93a2.74,2.74,0,0,1,2.6,1.8,90.36,90.36,0,0,1,4.74,19.72,2.4,2.4,0,0,1-1.66,2.51l-29.63,9.63-10.79,1.38-33.18-2.29a2.56,2.56,0,0,1-2.35-2.09c-.73-4.09-2.3-13.71-2-20.07A2.83,2.83,0,0,1,277,298Z"/><path class="cls-7" d="M312,322.64h0l-1.31-.09a.15.15,0,0,1-.15-.17.16.16,0,0,1,.17-.15l1.31.09a.17.17,0,0,1,.16.17A.16.16,0,0,1,312,322.64Zm-4.36-.3h0l-1.31-.09a.15.15,0,0,1-.15-.17.16.16,0,0,1,.17-.15l1.31.09a.15.15,0,0,1,.15.17A.15.15,0,0,1,307.64,322.34Zm7.14,0a.16.16,0,0,1-.16-.14.17.17,0,0,1,.14-.19l1.3-.16a.15.15,0,0,1,.18.14.15.15,0,0,1-.14.18l-1.3.17Zm-11.5-.25h0L302,322a.15.15,0,0,1-.15-.17.17.17,0,0,1,.17-.16l1.31.09a.17.17,0,0,1,.15.18A.15.15,0,0,1,303.28,322Zm-4.36-.3h0l-1.31-.09a.16.16,0,0,1-.15-.17.18.18,0,0,1,.17-.16l1.31.09a.17.17,0,0,1,.15.18A.16.16,0,0,1,298.92,321.74Zm20.2,0a.17.17,0,0,1-.17-.14.17.17,0,0,1,.15-.18l1.3-.17a.15.15,0,0,1,.18.14.18.18,0,0,1-.14.19l-1.3.16Zm-24.56-.29h0l-1.31-.09a.17.17,0,0,1-.15-.18.16.16,0,0,1,.17-.15l1.31.09a.17.17,0,0,1,.15.18A.16.16,0,0,1,294.56,321.44Zm-4.36-.3h0l-1.31-.09a.17.17,0,0,1-.15-.18.16.16,0,0,1,.17-.15l1.31.09a.17.17,0,0,1,.15.18A.16.16,0,0,1,290.2,321.14Zm33.2-.18a.16.16,0,0,1-.15-.11.17.17,0,0,1,.1-.21l1.25-.4a.16.16,0,0,1,.21.11.16.16,0,0,1-.11.2l-1.24.41Zm-37.56-.12h0l-1.31-.09a.17.17,0,0,1-.15-.18.15.15,0,0,1,.17-.15l1.31.09a.16.16,0,0,1,.15.17A.16.16,0,0,1,285.84,320.84Zm-4.36-.3h0l-1.31-.09a.17.17,0,0,1-.15-.18.16.16,0,0,1,.17-.15l1.31.09a.16.16,0,0,1,.15.17A.16.16,0,0,1,281.48,320.54Zm46.08-.93a.15.15,0,0,1-.15-.11.16.16,0,0,1,.1-.21l1.25-.4a.16.16,0,0,1,.2.1.16.16,0,0,1-.1.21l-1.25.41Zm-48.77-1.23a.16.16,0,0,1-.16-.14c-.07-.41-.14-.84-.21-1.3a.15.15,0,0,1,.14-.18.15.15,0,0,1,.18.13c.07.46.15.89.21,1.3a.15.15,0,0,1-.13.18Zm52.93-.12a.17.17,0,0,1-.16-.11.16.16,0,0,1,.11-.21l1.24-.4a.16.16,0,1,1,.11.31l-1.25.4Zm4.16-1.35a.16.16,0,0,1-.16-.11.17.17,0,0,1,.1-.21l1.25-.4a.17.17,0,0,1,.21.1.16.16,0,0,1-.11.21l-1.24.4Zm4.15-1.35a.15.15,0,0,1-.15-.11.17.17,0,0,1,.1-.21l1.25-.4a.16.16,0,0,1,.21.1.17.17,0,0,1-.11.21l-1.25.4Zm4.16-1.35a.16.16,0,0,1-.05-.32l1.25-.41a.17.17,0,0,1,.1.32l-1.25.4Zm-66.06-.16a.16.16,0,0,1-.16-.14c-.06-.42-.12-.86-.18-1.3a.16.16,0,0,1,.14-.18.17.17,0,0,1,.19.14c.05.44.11.87.17,1.3a.16.16,0,0,1-.14.18Zm70.22-1.19a.18.18,0,0,1-.16-.11.16.16,0,0,1,.11-.21l1.24-.41a.17.17,0,0,1,.21.11.17.17,0,0,1-.11.21l-1.24.4Zm3-2.07a.16.16,0,0,1-.17-.14c-.05-.43-.11-.87-.18-1.3a.16.16,0,0,1,.14-.18.16.16,0,0,1,.19.13l.18,1.31a.16.16,0,0,1-.14.18Zm-73.8-1.08a.16.16,0,0,1-.16-.14c-.05-.44-.09-.88-.13-1.31a.17.17,0,1,1,.33,0c0,.43.08.87.13,1.3a.17.17,0,0,1-.15.18Zm73.1-3.23a.16.16,0,0,1-.16-.14l-.27-1.28a.17.17,0,0,1,.13-.19.16.16,0,0,1,.2.12c.09.43.17.86.26,1.29a.16.16,0,0,1-.13.19Zm-73.45-1.13a.16.16,0,0,1-.16-.15c0-.45,0-.89-.06-1.32a.17.17,0,0,1,.33,0c0,.43,0,.87.06,1.31a.17.17,0,0,1-.16.17Zm72.5-3.14a.16.16,0,0,1-.16-.13q-.16-.65-.33-1.26a.16.16,0,0,1,.12-.2.16.16,0,0,1,.2.11c.11.42.22.84.33,1.28a.17.17,0,0,1-.12.19ZM277.2,301h0a.17.17,0,0,1-.16-.17v0a.35.35,0,0,1,.3-.31l1-.14a.16.16,0,0,1,0,.32l-1,.16,0,0A.16.16,0,0,1,277.2,301Zm4.23-.76a.16.16,0,0,1-.16-.14.18.18,0,0,1,.14-.19l1.3-.18a.16.16,0,0,1,.18.14.16.16,0,0,1-.14.19l-1.3.18Zm4.33-.6a.16.16,0,0,1-.16-.14.16.16,0,0,1,.14-.18l1.3-.18a.17.17,0,0,1,.19.14.16.16,0,0,1-.14.18l-1.3.18Zm4.34-.59a.18.18,0,0,1-.17-.14.17.17,0,0,1,.15-.18l1.3-.18a.16.16,0,0,1,.18.14.18.18,0,0,1-.14.19l-1.3.17Zm4.33-.58a.16.16,0,0,1-.16-.14.16.16,0,0,1,.14-.18l1.3-.18a.17.17,0,0,1,.18.14.16.16,0,0,1-.14.19l-1.3.17Zm54.15-.47a.16.16,0,0,1-.15-.12c-.13-.43-.26-.85-.39-1.25a.17.17,0,0,1,.11-.2.17.17,0,0,1,.21.1l.38,1.26a.15.15,0,0,1-.11.2Zm-49.81-.1a.16.16,0,0,1-.17-.14.18.18,0,0,1,.14-.19l1.3-.17a.18.18,0,0,1,.19.15.16.16,0,0,1-.14.18l-1.3.17Zm4.33-.56a.16.16,0,0,1-.16-.14.17.17,0,0,1,.14-.19l1.3-.16a.16.16,0,0,1,.19.14.17.17,0,0,1-.15.18l-1.3.17Zm4.34-.55a.16.16,0,0,1-.16-.15.15.15,0,0,1,.14-.18l1.3-.16a.15.15,0,0,1,.18.14.16.16,0,0,1-.14.18l-1.3.17Zm4.34-.54a.16.16,0,0,1-.17-.15.17.17,0,0,1,.15-.18l1.3-.16a.15.15,0,0,1,.18.14.18.18,0,0,1-.14.19l-1.3.16Zm4.34-.53a.16.16,0,0,1-.17-.14.18.18,0,0,1,.15-.19l1.3-.15a.16.16,0,1,1,0,.32l-1.31.16Zm4.34-.51a.16.16,0,0,1-.17-.15.17.17,0,0,1,.15-.18l1.3-.15a.16.16,0,0,1,.18.15.16.16,0,0,1-.14.18l-1.3.15Zm4.34-.49a.16.16,0,0,1-.16-.15.16.16,0,0,1,.14-.18l1.31-.14a.16.16,0,0,1,.18.14.17.17,0,0,1-.15.18l-1.3.15Zm4.35-.47a.16.16,0,0,1-.17-.15.17.17,0,0,1,.15-.18l1.3-.13a.16.16,0,0,1,0,.32l-1.31.14Zm18.09-.41a.17.17,0,0,1-.15-.11l-.29-.83h-.22a.18.18,0,0,1-.17-.17.16.16,0,0,1,.16-.16h.27a.26.26,0,0,1,.25.16c.09.26.2.55.31.88a.17.17,0,0,1-.1.21Zm-13.74,0a.16.16,0,0,1-.17-.15.17.17,0,0,1,.15-.18l1.31-.12a.15.15,0,0,1,.17.15.16.16,0,0,1-.14.18l-1.31.12Zm4.35-.39a.16.16,0,0,1-.16-.15.16.16,0,0,1,.15-.18l1.3-.11a.17.17,0,0,1,.18.16.16.16,0,0,1-.15.17l-1.31.11Zm4.36-.33a.16.16,0,0,1-.17-.15.17.17,0,0,1,.16-.17l1.31-.08a.15.15,0,0,1,.17.15.17.17,0,0,1-.15.18l-1.31.07Z"/><path class="cls-49" d="M322.43,328.41,313,329.62a2.45,2.45,0,0,1-2.7-1.84L308,318.83a2.47,2.47,0,0,1,2.08-3l11.36-1.45a2.46,2.46,0,0,1,2.77,2.34l.35,9.2A2.45,2.45,0,0,1,322.43,328.41Z"/><path class="cls-50" d="M321.05,326.89l-7.19.92a1.88,1.88,0,0,1-2.06-1.4l-1.71-6.82a1.87,1.87,0,0,1,1.58-2.31l8.64-1.1a1.86,1.86,0,0,1,2.11,1.78l.27,7A1.87,1.87,0,0,1,321.05,326.89Z"/><path class="cls-51" d="M315.43,254.41a73.68,73.68,0,0,1,1.95,21.5A2.55,2.55,0,0,1,315,278.2c-1.41.1-3.33.23-5,.33-1.89.11-4-1.08-5.38-2.08a.84.84,0,0,0-1.23,1.07,10.26,10.26,0,0,0,3.06,3.3c.71.54,3.08,1.5,2.92,2.57a2,2,0,0,1-.48.89,10.66,10.66,0,0,1-5.27,3,1.48,1.48,0,0,0-.68.35c-.05,1.27,3.86,2.68,4.87,3a11.35,11.35,0,0,0,4.7.55,13.93,13.93,0,0,0,9.69-6.41c5.66-8.75,8.59-19.31,9.66-27.4C326.57,252.15,318.61,253.48,315.43,254.41Z"/><path class="cls-52" d="M331.84,258.25c4.2-31.74-20.26-56.14-20.26-56.14l-14.55,17c11.05,13.77,16.3,26.39,18.7,36.3C318.91,254.44,326.57,253,331.84,258.25Z"/><path class="cls-53" d="M315.38,255.22a.91.91,0,0,1-.88-.69c-2.95-12.22-9.19-24.32-18.52-35.95a.9.9,0,0,1,.14-1.27.89.89,0,0,1,1.26.14c9.51,11.84,15.86,24.18,18.88,36.65a.91.91,0,0,1-.67,1.09A.76.76,0,0,1,315.38,255.22Z"/><path class="cls-54" d="M118.3,443.36a1.93,1.93,0,0,0,0-.47c-2.34-9.28-14-15.05-14-15.05l-4.6.36c-2.64,8.17-2.3,13.19-1.88,15.42a1.05,1.05,0,0,0,0,.19A108.84,108.84,0,0,0,118.3,443.36Z"/><path class="cls-55" d="M97.86,443.81a2,2,0,0,0,1.46,1.47c5.4,1.14,14,.22,17.59-.25a1.67,1.67,0,0,0,1.39-1.67A108.84,108.84,0,0,1,97.86,443.81Z"/><path class="cls-56" d="M97.84,421.34l2,9.39A1.54,1.54,0,0,0,101.1,432a13.49,13.49,0,0,0,3-.05,1.93,1.93,0,0,0,1.53-2.27l-1.36-8.33Z"/><path class="cls-57" d="M138.23,443.69c-5.08-.14-7.71-.74-9.07-1.3,0,.51,0,1,0,1.55a1,1,0,0,0,.95,1l27.92-.18a1.26,1.26,0,0,0,1-1.85C155.41,443.23,146.09,443.91,138.23,443.69Z"/><path class="cls-58" d="M159.07,442.93a1.06,1.06,0,0,0-.11-.21c-2.46-3.45-8.74-10.3-21.15-13.28l-5.95-.19s-2.65,4.61-2.7,13.14c1.36.56,4,1.16,9.07,1.3C146.09,443.91,155.41,443.23,159.07,442.93Z"/><path class="cls-59" d="M130.49,420.51c.1.44,1.33,7.12,1.81,9.71a1.3,1.3,0,0,0,1.17,1.09,13.29,13.29,0,0,0,4.07-.32,1.73,1.73,0,0,0,1.22-1.84l-.66-10.57Z"/><path class="cls-60" d="M126,297.21s8.19,56.26,14.1,123.2A2.55,2.55,0,0,1,138,423a30.49,30.49,0,0,1-6.65.77,2.45,2.45,0,0,1-2.35-2.06c-2-11.8-16.38-75.15-20.15-89.09,0,0-4.33,59.22-2.94,89.95a1.46,1.46,0,0,1-1.29,1.51,23.9,23.9,0,0,1-5.34,0,2,2,0,0,1-1.74-1.65c-1.43-10-9.68-69.46-9.33-112.29,0-2.42,2.83-22.26,2.83-22.26Z"/><path class="cls-61" d="M89.78,300.45a2.3,2.3,0,0,1-1.52-1.95c-1.09-10.56-6.36-76.05,26.92-103,0,0,1.91-5,17.6,7.28s7.28,25.14,3.53,42.89c-4.55,21.47-12.52,39-9,52.24a1.84,1.84,0,0,1-1.12,2.19A52,52,0,0,1,89.78,300.45Z"/><path class="cls-62" d="M128.16,175.89c0,.93-13.3,19.8-13.3,19.8s2.39,4.7,13.77,8.52L138.46,184Z"/><path class="cls-63" d="M138.62,165.07s4.73,10.86,5,16.56,1.55,9.4-5,10.55-12.14-2.13-15.15-7.81c0,0-4.71-8.75-3.66-12.34S138.62,165.07,138.62,165.07Z"/><path class="cls-64" d="M125.72,180.28l.38-.16a.9.9,0,0,0,.44-1.24c-.93-1.8-2.74-5.92-.4-6.88,3-1.23,15-3.67,17.55-7.91,2.47-4.08.28-9.34-3-10.83a.47.47,0,0,0-.6.19l-.27.52a.45.45,0,0,1-.83-.08h0a.44.44,0,0,0-.8-.12c-.8,1.27-2.94,3.33-8.66,4.38-8.13,1.5-13.51,4.79-13.64,10.41a.45.45,0,0,1-.69.37c-.6-.36-1.57-.53-2.85.55-2.23,1.87-1.32,6.74,3.58,10.75a.45.45,0,0,1,0,.72c-.89.58-2.22,2,1.21,3.78a11.62,11.62,0,0,0,7.22,1.58.46.46,0,0,0,.36-.54l-1.09-4.94a.45.45,0,0,1,.44-.55Z"/><path class="cls-65" d="M125.93,181.33s-1.81-6.94-4.92-5,1.62,7.78,4.12,8Z"/><path class="cls-66" d="M137.82,208.49l.92,24.6a66.55,66.55,0,0,0,7.44,2.12c1.47-4.76,4.72-10.59,7.38-14.92C143.79,216.83,137.82,208.49,137.82,208.49Z"/><path class="cls-67" d="M186.63,208.07c-13.41,14.48-24.26,15.33-33.07,12.22-2.66,4.33-5.91,10.16-7.38,14.92,35.81,7.89,44.24-25,44.24-25Z"/><path class="cls-68" d="M189.35,206.53a4.92,4.92,0,0,1,4.4-1.14c2.86.52,5.41,1.52,7.19,0s2.41.52,2.41.52L198,210Z"/><path class="cls-69" d="M186.16,209.37s1.06-4.43,4.25-3.82,10.43,4.54,12.3,3.82,4.25-2.47,5.47-1.85L206,210.2s5.54-3.2,6.49-1.23l-9.22,5.19S189.8,212.81,186.16,209.37Z"/><path class="cls-70" d="M122.94,240.69s25.21,21.12,52.43,11.9a6.49,6.49,0,0,1,5.11.39l7.83,4.13a7,7,0,0,0,9.26-2.59,14.62,14.62,0,0,0,2.2-5.89l-15.31-6.2,1.13-1.88s-7.48-.63-9.44,4.73c0,0-14.24,5.92-38.26-20.49C137.89,224.79,127,234.05,122.94,240.69Z"/><path class="cls-71" d="M121.58,240.47a.42.42,0,0,1-.24-.07c-10.62-7.17-15.61-18.75-15.66-18.87a.43.43,0,0,1,.23-.56.42.42,0,0,1,.56.23c0,.11,5,11.46,15.35,18.48a.44.44,0,0,1,.12.6A.42.42,0,0,1,121.58,240.47Z"/><path class="cls-72" d="M137.39,224.43a.42.42,0,0,1-.36-.2s-3.28-5.1-9.45-16.16c-1.9-3.4-4.4-5.56-7.42-6.4-5-1.4-9.84,1.28-9.89,1.31a.42.42,0,0,1-.58-.16.43.43,0,0,1,.16-.59c.21-.12,5.17-2.89,10.53-1.39,3.26.9,5.93,3.2,8,6.81,6.16,11,9.39,16.06,9.42,16.11a.44.44,0,0,1-.13.6A.39.39,0,0,1,137.39,224.43Z"/></svg>